<svg xmlns="http://www.w3.org/2000/svg" viewBox="0 0 60 40.17"><defs><style>.cls-1{fill:#404040;}</style></defs><title>controladoria e contabilidade-icon-grad</title><g id="Layer_2" data-name="Layer 2"><g id="Layer_1-2" data-name="Layer 1"><path class="cls-1" d="M56.32,0H3.68A3.68,3.68,0,0,0,0,3.68V36.49a3.68,3.68,0,0,0,3.68,3.68H56.32A3.68,3.68,0,0,0,60,36.49V3.68A3.68,3.68,0,0,0,56.32,0Zm1.29,36.49a1.29,1.29,0,0,1-1.29,1.29H3.68a1.29,1.29,0,0,1-1.29-1.29V3.68A1.29,1.29,0,0,1,3.68,2.39H56.32a1.29,1.29,0,0,1,1.29,1.29Z"/><path class="cls-1" d="M51.67,5.17H8.33A2.23,2.23,0,0,0,6.1,7.4v6.34A2.23,2.23,0,0,0,8.33,16H51.67a2.23,2.23,0,0,0,2.23-2.23V7.4A2.23,2.23,0,0,0,51.67,5.17Zm-.16,8.41h-43v-6h43v6Z"/><path class="cls-1" d="M12.94,17.68H7.6a1.51,1.51,0,0,0-1.5,1.51v5a1.5,1.5,0,0,0,1.5,1.5h5.34a1.51,1.51,0,0,0,1.51-1.5v-5A1.52,1.52,0,0,0,12.94,17.68Zm-.88,5.65H8.49V20.08h3.57Z"/><path class="cls-1" d="M12.94,27.18H7.6a1.5,1.5,0,0,0-1.5,1.5v5a1.51,1.51,0,0,0,1.5,1.51h5.34a1.52,1.52,0,0,0,1.51-1.51v-5A1.51,1.51,0,0,0,12.94,27.18Zm-.88,5.64H8.49V29.57h3.57Z"/><path class="cls-1" d="M22.84,17.68H17.49A1.51,1.51,0,0,0,16,19.19v5a1.5,1.5,0,0,0,1.5,1.5h5.35a1.5,1.5,0,0,0,1.5-1.5v-5A1.51,1.51,0,0,0,22.84,17.68ZM22,23.33H18.38V20.08H22Z"/><path class="cls-1" d="M22.84,27.18H17.49a1.5,1.5,0,0,0-1.5,1.5v5a1.51,1.51,0,0,0,1.5,1.51h5.35a1.51,1.51,0,0,0,1.5-1.51v-5A1.5,1.5,0,0,0,22.84,27.18ZM22,32.82H18.38V29.57H22Z"/><path class="cls-1" d="M32.73,17.68H27.39a1.52,1.52,0,0,0-1.51,1.51v5a1.51,1.51,0,0,0,1.51,1.5h5.34a1.51,1.51,0,0,0,1.51-1.5v-5A1.52,1.52,0,0,0,32.73,17.68Zm-.89,5.65H28.27V20.08h3.57Z"/><path class="cls-1" d="M32.73,27.18H27.39a1.51,1.51,0,0,0-1.51,1.5v5a1.52,1.52,0,0,0,1.51,1.51h5.34a1.52,1.52,0,0,0,1.51-1.51v-5A1.51,1.51,0,0,0,32.73,27.18Zm-.89,5.64H28.27V29.57h3.57Z"/><path class="cls-1" d="M42.74,17.68H37.4a1.51,1.51,0,0,0-1.5,1.51v5a1.5,1.5,0,0,0,1.5,1.5h5.34a1.51,1.51,0,0,0,1.51-1.5v-5A1.52,1.52,0,0,0,42.74,17.68Zm-.88,5.65H38.29V20.08h3.57Z"/><path class="cls-1" d="M42.74,27.18H37.4a1.5,1.5,0,0,0-1.5,1.5v5a1.51,1.51,0,0,0,1.5,1.51h5.34a1.52,1.52,0,0,0,1.51-1.51v-5A1.51,1.51,0,0,0,42.74,27.18Zm-.88,5.64H38.29V29.57h3.57Z"/><path class="cls-1" d="M52.64,17.68H47.3a1.52,1.52,0,0,0-1.51,1.51v5a1.51,1.51,0,0,0,1.51,1.5h5.34a1.5,1.5,0,0,0,1.5-1.5v-5A1.51,1.51,0,0,0,52.64,17.68Zm-.89,5.65H48.18V20.08h3.57Z"/><path class="cls-1" d="M52.64,27.18H47.3a1.51,1.51,0,0,0-1.51,1.5v5a1.52,1.52,0,0,0,1.51,1.51h5.34a1.51,1.51,0,0,0,1.5-1.51v-5A1.5,1.5,0,0,0,52.64,27.18Zm-.89,5.64H48.18V29.57h3.57Z"/><path class="cls-1" d="M48.05,9.35H31.91a1.2,1.2,0,0,0,0,2.39H48.05a1.2,1.2,0,0,0,0-2.39Z"/><path class="cls-1" d="M28.09,9.35h-.48a1.2,1.2,0,1,0,0,2.39h.48a1.2,1.2,0,0,0,0-2.39Z"/></g></g></svg>