<svg xmlns="http://www.w3.org/2000/svg" viewBox="0 0 60 60"><defs><style>.cls-1{fill:#404040;}</style></defs><title>financaseeconomia-icon-grad</title><g id="Layer_2" data-name="Layer 2"><g id="Layer_1-2" data-name="Layer 1"><path class="cls-1" d="M58.83,57.66h-.94V23.44a1.17,1.17,0,0,0-1.17-1.17H47.34a1.17,1.17,0,0,0-1.17,1.17V36a1.18,1.18,0,0,0,2.35,0V24.61h7V57.66h-7V47.46a1.18,1.18,0,0,0-2.35,0v10.2H43.36V31.17A1.17,1.17,0,0,0,42.19,30H32.81a1.17,1.17,0,0,0-1.17,1.17V57.66H28.36V38.44a1.17,1.17,0,0,0-1.17-1.17H17.81a1.17,1.17,0,0,0-1.17,1.17V57.66H13.83V45.94a1.17,1.17,0,0,0-1.17-1.17H3.28a1.17,1.17,0,0,0-1.17,1.17V57.66H1.17a1.17,1.17,0,0,0,0,2.34H58.83a1.17,1.17,0,0,0,0-2.34Zm-47.35,0h-7V47.11h7Zm14.54,0H19v-18h7Zm15,0H34V32.34h7Z"/><path class="cls-1" d="M48.17,40.64a1.22,1.22,0,0,0-.83-.34,1.17,1.17,0,0,0-.82,2,1.15,1.15,0,0,0,.82.34,1.17,1.17,0,0,0,.83-2Z"/><path class="cls-1" d="M51.09,0A8.91,8.91,0,1,0,60,8.91,8.92,8.92,0,0,0,51.09,0Zm0,12.32a1.24,1.24,0,0,1-1.33-1.1,1.17,1.17,0,0,0-2.34,0,3.48,3.48,0,0,0,2.5,3.26v.88a6.56,6.56,0,0,1,0-12.91v1a3.47,3.47,0,0,0-2.5,3.26,3.56,3.56,0,0,0,3.67,3.44,1.23,1.23,0,0,1,1.33,1.1A1.23,1.23,0,0,1,51.09,12.32Zm1.18,3v-.88a3.48,3.48,0,0,0,2.5-3.26,3.57,3.57,0,0,0-3.68-3.44,1.24,1.24,0,0,1-1.33-1.1,1.35,1.35,0,0,1,2.66,0,1.18,1.18,0,0,0,2.35,0,3.47,3.47,0,0,0-2.5-3.26v-1a6.56,6.56,0,0,1,0,12.91Z"/><path class="cls-1" d="M41.72,15.16H37.13a1.17,1.17,0,1,0,0,2.34h1.76L26.36,30,20,23.67a1.16,1.16,0,0,0-1.65,0L5.59,36.41a1.17,1.17,0,0,0,1.66,1.66L19.17,26.15l6.36,6.37a1.17,1.17,0,0,0,1.66,0L40.55,19.16v1.76a1.17,1.17,0,1,0,2.34,0V16.33A1.17,1.17,0,0,0,41.72,15.16Z"/><path class="cls-1" d="M4.2,39.46a1.17,1.17,0,0,0-.83-.34,1.15,1.15,0,0,0-.82.34,1.17,1.17,0,0,0,.82,2,1.22,1.22,0,0,0,.83-.34,1.16,1.16,0,0,0,0-1.66Z"/></g></g></svg>