<?xml version="1.0" encoding="UTF-8" standalone="no"?><!DOCTYPE svg PUBLIC "-//W3C//DTD SVG 1.1//EN" "http://www.w3.org/Graphics/SVG/1.1/DTD/svg11.dtd"><svg width="100%" height="100%" viewBox="0 0 105 28" version="1.1" xmlns="http://www.w3.org/2000/svg" xmlns:xlink="http://www.w3.org/1999/xlink" xml:space="preserve" xmlns:serif="http://www.serif.com/" style="fill-rule:evenodd;clip-rule:evenodd;stroke-linecap:round;stroke-linejoin:round;stroke-miterlimit:1.5;"><g><g><path d="M12.549,0.417l12.125,6.673l0,13.347l-12.125,6.674l-12.124,-6.674l0,-13.347l12.124,-6.673Z" style="fill:none;stroke:#404040;stroke-width:0.83px;"/><path d="M6.895,6.138l-0.002,14.155l2.248,-1.263l-0.005,-14.119l-2.241,1.227Z" style="fill:none;stroke:#404040;stroke-width:0.83px;"/><path d="M7.901,21.963l12.382,-7.017l-2,-1.182l-12.411,7.082l2.029,1.117Z" style="fill:none;stroke:#404040;stroke-width:0.82px;"/><path d="M22.281,13.683l-13.14,-7.419l0,2.233l13.154,7.614l-0.014,-2.428Z" style="fill:none;stroke:#404040;stroke-width:0.85px;"/><path d="M0.425,20.437l12.124,6.674l2.352,-1.295l-14.476,-7.968l0,2.589Z" style="fill:none;stroke:#404040;stroke-width:0.85px;"/><path d="M24.674,20.437l0,-13.347l-2.352,-1.294l-0.041,15.958l2.393,-1.317Z" style="fill:none;stroke:#404040;stroke-width:0.83px;"/><path d="M12.549,0.417l-12.124,6.673l0,2.589l14.517,-7.945l-2.393,-1.317Z" style="fill:none;stroke:#404040;stroke-width:0.82px;"/></g></g><text x="32.503px" y="21.316px" style="font-family:'Nunito-Light', 'Nunito';font-weight:300;font-size:20.657px;fill:#404040;">T<tspan x="42.053px 55.56px 68.13px 81.638px 91.281px " y="21.316px 21.316px 21.316px 21.316px 21.316px ">ABULA</tspan></text></svg>