<?xml version="1.0" encoding="iso-8859-1"?>
<!-- Generator: Adobe Illustrator 19.0.0, SVG Export Plug-In . SVG Version: 6.00 Build 0)  -->
<svg xmlns="http://www.w3.org/2000/svg" xmlns:xlink="http://www.w3.org/1999/xlink" version="1.1" id="Layer_1" x="0px" y="0px" viewBox="0 0 512 512" style="enable-background:new 0 0 512 512;" xml:space="preserve" width="512px" height="512px">
<g>
	<g>
		<path d="M504.338,29.471H215.956c-4.232,0-7.662,3.43-7.662,7.662v193.179c0,0.809,0.128,1.613,0.38,2.383l24.672,75.411    c0.932,2.847,3.438,4.892,6.415,5.231c0.291,0.033,0.581,0.049,0.869,0.049c2.661,0,5.16-1.387,6.558-3.702l43.288-71.709h213.863    c4.233,0,7.662-3.43,7.662-7.662V37.133C512,32.902,508.569,29.471,504.338,29.471z M496.675,222.651H286.15    c-2.684,0-5.173,1.405-6.56,3.702l-36.879,61.095l-19.092-58.356V44.796h273.057V222.651z" fill="#FFFFFF"/>
	</g>
</g>
<g>
	<g>
		<path d="M462.371,79.052H263.346c-4.233,0-7.662,3.43-7.662,7.662s3.43,7.662,7.662,7.662h199.025c4.232,0,7.662-3.43,7.662-7.662    S466.602,79.052,462.371,79.052z" fill="#FFFFFF"/>
	</g>
</g>
<g>
	<g>
		<path d="M462.371,124.467H263.346c-4.233,0-7.662,3.43-7.662,7.662s3.43,7.662,7.662,7.662h199.025    c4.232,0,7.662-3.43,7.662-7.662S466.602,124.467,462.371,124.467z" fill="#FFFFFF"/>
	</g>
</g>
<g>
	<g>
		<path d="M462.371,169.881H263.346c-4.233,0-7.662,3.43-7.662,7.662s3.43,7.662,7.662,7.662h199.025    c4.232,0,7.662-3.43,7.662-7.662S466.602,169.881,462.371,169.881z" fill="#FFFFFF"/>
	</g>
</g>
<g>
	<g>
		<path d="M176.741,363.72h-27.593v-18.942l16.629-18.315c8.145-8.969,12.63-20.582,12.63-32.699v-42.337    c0-28.713-23.361-52.075-52.075-52.075h-24.695c-28.713,0-52.074,23.361-52.074,52.075v42.337c0,12.116,4.486,23.73,12.629,32.699    l16.63,18.315v18.942H51.231C22.982,363.72,0,386.702,0,414.952v59.915c0,4.233,3.431,7.662,7.662,7.662H220.31    c4.232,0,7.662-3.43,7.662-7.662v-59.915C227.972,386.702,204.99,363.72,176.741,363.72z M212.648,467.203H15.325v-52.253    c0-19.798,16.107-35.906,35.906-35.906h35.256c4.232,0,7.662-3.43,7.662-7.662v-29.984c0-2.734-1.431-5.132-3.585-6.488    l-17.025-18.75c-5.578-6.143-8.65-14.098-8.65-22.396v-42.337c0-20.264,16.486-36.75,36.749-36.75h24.695    c20.264,0,36.75,16.486,36.75,36.75v42.337c0,8.299-3.072,16.253-8.651,22.396l-17.025,18.75    c-2.154,1.356-3.585,3.754-3.585,6.488v29.984c0,4.233,3.431,7.662,7.662,7.662h35.256c19.798,0,35.906,16.108,35.906,35.906    V467.203z" fill="#FFFFFF"/>
	</g>
</g>
<g>
</g>
<g>
</g>
<g>
</g>
<g>
</g>
<g>
</g>
<g>
</g>
<g>
</g>
<g>
</g>
<g>
</g>
<g>
</g>
<g>
</g>
<g>
</g>
<g>
</g>
<g>
</g>
<g>
</g>
</svg>
