<?xml version="1.0" encoding="UTF-8" standalone="no"?><!DOCTYPE svg PUBLIC "-//W3C//DTD SVG 1.1//EN" "http://www.w3.org/Graphics/SVG/1.1/DTD/svg11.dtd"><svg width="100%" height="100%" viewBox="0 0 395 117" version="1.1" xmlns="http://www.w3.org/2000/svg" xmlns:xlink="http://www.w3.org/1999/xlink" xml:space="preserve" xmlns:serif="http://www.serif.com/" style="fill-rule:evenodd;clip-rule:evenodd;stroke-linecap:round;stroke-linejoin:round;stroke-miterlimit:1.5;"><clipPath id="_clip1"><rect id="logo" x="0" y="0" width="394.624" height="116.777"/></clipPath><g clip-path="url(#_clip1)"><g><g><path d="M49.183,1.671l47.516,27.431l0,54.864l-47.516,27.431l-47.512,-27.431l0,-54.864l47.512,-27.431Z" style="fill:none;stroke:#404040;stroke-width:3.34px;"/><path d="M27.028,25.187l-0.008,58.187l8.81,-5.19l-0.02,-58.038l-8.782,5.041Z" style="fill:none;stroke:#404040;stroke-width:3.34px;"/><path d="M30.97,90.24l48.523,-28.844l-7.837,-4.86l-48.639,29.114l7.953,4.59Z" style="fill:none;stroke:#404040;stroke-width:3.34px;"/><path d="M87.321,56.202l-51.491,-30.495l0,9.177l51.547,31.3l-0.056,-9.982Z" style="fill:none;stroke:#404040;stroke-width:3.34px;"/><path d="M1.671,83.966l47.512,27.431l9.217,-5.32l-56.729,-32.753l0,10.642Z" style="fill:none;stroke:#404040;stroke-width:3.34px;"/><path d="M96.699,83.966l0,-54.864l-9.217,-5.32l-0.161,65.6l9.378,-5.416Z" style="fill:none;stroke:#404040;stroke-width:3.34px;"/><path d="M49.183,1.671l-47.512,27.431l0,10.642l56.89,-32.661l-9.378,-5.412Z" style="fill:none;stroke:#404040;stroke-width:3.34px;"/></g><g><text x="119.908px" y="80.085px" style="font-family:'Nunito-Light', 'Nunito';font-weight:300;font-size:67.312px;fill:#404040;stroke:#404040;stroke-width:0.37px;stroke-linecap:butt;stroke-miterlimit:1.41421;">T</text><text x="154.172px" y="80.085px" style="font-family:'Nunito-Light', 'Nunito';font-weight:300;font-size:67.312px;fill:#404040;stroke:#404040;stroke-width:0.37px;stroke-linecap:butt;stroke-miterlimit:1.41421;">ABUL</text><text x="330.798px" y="80.085px" style="font-family:'Nunito-Light', 'Nunito';font-weight:300;font-size:67.312px;fill:#404040;stroke:#404040;stroke-width:0.37px;stroke-linecap:butt;stroke-miterlimit:1.41421;">A</text></g></g></g></svg>