<?xml version="1.0" encoding="UTF-8" standalone="no"?><!DOCTYPE svg PUBLIC "-//W3C//DTD SVG 1.1//EN" "http://www.w3.org/Graphics/SVG/1.1/DTD/svg11.dtd"><svg width="100%" height="100%" viewBox="0 0 286 286" version="1.1" xmlns="http://www.w3.org/2000/svg" xmlns:xlink="http://www.w3.org/1999/xlink" xml:space="preserve" xmlns:serif="http://www.serif.com/" style="fill-rule:evenodd;clip-rule:evenodd;stroke-linecap:round;stroke-linejoin:round;stroke-miterlimit:1.5;"><clipPath id="_clip1"><rect id="hexagon" x="0" y="0" width="285.159" height="285.159"/></clipPath><g clip-path="url(#_clip1)"><path d="M270.283,72.074l-124.757,-71.29c-1.829,-1.045 -4.063,-1.045 -5.893,0l-124.757,71.29c-1.853,1.058 -2.994,3.03 -2.994,5.157l0,130.698c0,2.127 1.141,4.099 2.994,5.156l124.757,71.29c0.915,0.523 1.925,0.784 2.947,0.784c1.022,0 2.032,-0.261 2.947,-0.784l124.757,-71.29c1.853,-1.057 2.994,-3.029 2.994,-5.156l0,-130.698c-0.001,-2.127 -1.141,-4.099 -2.995,-5.157Zm-8.888,132.409l-118.816,67.891l-118.816,-67.891l0,-123.807l118.816,-67.891l118.816,67.892l0,123.806Z" style="fill:#303030;fill-rule:nonzero;"/></g><path d="M21.106,78.848l245.107,0" style="fill:none;stroke:#303030;stroke-width:11px;"/><path d="M21.106,142.882l245.107,0" style="fill:none;stroke:#303030;stroke-width:11px;"/><path d="M21.106,206.917l245.107,0" style="fill:none;stroke:#303030;stroke-width:11px;"/></svg>