<svg xmlns="http://www.w3.org/2000/svg" xmlns:xlink="http://www.w3.org/1999/xlink" viewBox="-1730 1610 166.454 144.153"><defs><style>.a,.d{fill:#fff;}.b{fill:#0ccaf2;}.b,.d{fill-rule:evenodd;}.c{clip-path:url(#a);}</style><clipPath id="a"><rect class="a" width="75" height="75"/></clipPath></defs><g transform="translate(-1938 -757)"><path class="b" d="M304.846-404.554l-41.613,72.077H180.006l-41.614-72.077,41.614-72.076h83.227Z" transform="translate(69.608 2843.63)"/><g transform="translate(254 2401)"><g class="c"><path class="a" d="M71.156-512H3.938A3.891,3.891,0,0,0,0-508.159c0,.011,0,.021,0,.031v46.875a3.891,3.891,0,0,0,3.843,3.937H6.25v-3.125H3.875a.75.75,0,0,1-.75-.75v-46.875a.75.75,0,0,1,.685-.81l.065,0H71.062a.75.75,0,0,1,.75.75v46.875a.75.75,0,0,1-.75.75h-7v3.125h7.062A3.891,3.891,0,0,0,75-461.191v-46.875A3.89,3.89,0,0,0,71.156-512Z" transform="translate(0 512.003)"/><path class="d" d="M202.669-156.876h12.5V-160h-12.5Z" transform="translate(-172.981 211.564)"/><path class="a" d="M76.5-426.668H68.689A4.687,4.687,0,0,0,64-421.981v53.125a4.687,4.687,0,0,0,4.687,4.687H76.5a4.687,4.687,0,0,0,4.687-4.687v-53.125A4.687,4.687,0,0,0,76.5-426.668Zm1.563,57.812a1.563,1.563,0,0,1-1.563,1.563H68.689a1.563,1.563,0,0,1-1.563-1.563v-1.563h4.687v-3.125H67.127v-9.375h4.687v-3.125H67.127v-7.812h4.687v-3.125H67.127v-9.375h4.687v-3.125H67.127v-7.812h4.687v-3.125H67.127v-1.563a1.563,1.563,0,0,1,1.563-1.563H76.5a1.563,1.563,0,0,1,1.563,1.563Z" transform="translate(-54.627 439.168)"/><path class="a" d="M264.893-254.037a1.566,1.566,0,0,0-.562-.344l-.2-.109-7.812-3.125a1.563,1.563,0,0,0-2.031.87,1.563,1.563,0,0,0,0,1.161l3.125,7.812a7.684,7.684,0,0,0,.469.766l26.437,26.422a1.562,1.562,0,0,0,2.2,0l4.812-4.812a1.562,1.562,0,0,0,0-2.2Zm-5.469,2.891-.891-2.234,2.234.891Zm1.766,3.047,2.625-2.625,20.312,20.312-2.625,2.625Zm24.234,24.2-1.719-1.7,2.594-2.594,1.7,1.7Z" transform="translate(-216.94 294.975)"/><path class="a" d="M423.814-467.772a1.563,1.563,0,0,0-1.563-1.563H416v3.125h4.687v4.688h3.125v-6.25Z" transform="translate(-355.064 475.585)"/><path class="d" d="M448-391.543h3.125v-3.125H448Z" transform="translate(-382.377 411.856)"/></g></g></g></svg>