<svg xmlns="http://www.w3.org/2000/svg" xmlns:xlink="http://www.w3.org/1999/xlink" viewBox="-1868 1372.782 166.454 144.153"><defs><style>.a{fill:#fff;}.b{fill:#93f20c;fill-rule:evenodd;}.c{clip-path:url(#a);}</style><clipPath id="a"><rect class="a" width="75" height="75"/></clipPath></defs><g transform="translate(-1938 -757)"><path class="b" d="M166.454-641.593,124.84-569.516H41.613L0-641.593l41.613-72.076H124.84Z" transform="translate(70 2843.451)"/><g transform="translate(115.893 2164.259)"><g class="c"><path class="a" d="M70.4-427.38H4.6a4.6,4.6,0,0,0-4.6,4.6v41.011a4.6,4.6,0,0,0,4.6,4.6H70.4a4.6,4.6,0,0,0,4.6-4.6v-41.011A4.6,4.6,0,0,0,70.4-427.38Zm1.611,45.61a1.613,1.613,0,0,1-1.611,1.611H4.6a1.613,1.613,0,0,1-1.611-1.611v-41.011A1.613,1.613,0,0,1,4.6-424.392H70.4a1.613,1.613,0,0,1,1.611,1.611Z" transform="translate(0 439.776)"/><path class="a" d="M108.982-383.287H54.811a2.8,2.8,0,0,0-2.8,2.8v7.915a2.8,2.8,0,0,0,2.8,2.8h54.171a2.8,2.8,0,0,0,2.8-2.8v-7.915A2.8,2.8,0,0,0,108.982-383.287Zm-.193,10.518H55v-7.53h53.785v7.53Z" transform="translate(-44.396 402.141)"/><path class="a" d="M60.574-276.469H53.9a1.882,1.882,0,0,0-1.88,1.88v6.283a1.882,1.882,0,0,0,1.88,1.88h6.678a1.882,1.882,0,0,0,1.88-1.88v-6.283A1.882,1.882,0,0,0,60.574-276.469Zm-1.108,7.055H55v-4.067h4.463Z" transform="translate(-44.396 310.971)"/><path class="a" d="M60.574-195.444H53.9a1.882,1.882,0,0,0-1.88,1.88v6.284a1.882,1.882,0,0,0,1.88,1.88h6.678a1.882,1.882,0,0,0,1.88-1.88v-6.284A1.882,1.882,0,0,0,60.574-195.444Zm-1.108,7.056H55v-4.068h4.463Z" transform="translate(-44.396 241.815)"/><path class="a" d="M145.007-276.469h-6.678a1.882,1.882,0,0,0-1.88,1.88v6.283a1.882,1.882,0,0,0,1.88,1.88h6.678a1.882,1.882,0,0,0,1.88-1.88v-6.283A1.882,1.882,0,0,0,145.007-276.469Zm-1.108,7.055h-4.463v-4.067H143.9Z" transform="translate(-116.461 310.971)"/><path class="a" d="M145.007-195.444h-6.678a1.882,1.882,0,0,0-1.88,1.88v6.284a1.882,1.882,0,0,0,1.88,1.88h6.678a1.882,1.882,0,0,0,1.88-1.88v-6.284A1.882,1.882,0,0,0,145.007-195.444Zm-1.108,7.056h-4.463v-4.068H143.9Z" transform="translate(-116.461 241.815)"/><path class="a" d="M229.439-276.469H222.76a1.882,1.882,0,0,0-1.88,1.88v6.283a1.882,1.882,0,0,0,1.88,1.88h6.679a1.882,1.882,0,0,0,1.88-1.88v-6.283A1.882,1.882,0,0,0,229.439-276.469Zm-1.108,7.055h-4.463v-4.067h4.463Z" transform="translate(-188.525 310.971)"/><path class="a" d="M229.439-195.444H222.76a1.882,1.882,0,0,0-1.88,1.88v6.284a1.882,1.882,0,0,0,1.88,1.88h6.679a1.882,1.882,0,0,0,1.88-1.88v-6.284A1.882,1.882,0,0,0,229.439-195.444Zm-1.108,7.056h-4.463v-4.068h4.463Z" transform="translate(-188.525 241.815)"/><path class="a" d="M314.889-276.469h-6.678a1.882,1.882,0,0,0-1.88,1.88v6.283a1.882,1.882,0,0,0,1.88,1.88h6.678a1.882,1.882,0,0,0,1.88-1.88v-6.283A1.882,1.882,0,0,0,314.889-276.469Zm-1.108,7.055h-4.462v-4.067h4.462Z" transform="translate(-261.458 310.971)"/><path class="a" d="M314.889-195.444h-6.678a1.882,1.882,0,0,0-1.88,1.88v6.284a1.882,1.882,0,0,0,1.88,1.88h6.678a1.882,1.882,0,0,0,1.88-1.88v-6.284A1.883,1.883,0,0,0,314.889-195.444Zm-1.108,7.056h-4.462v-4.068h4.462Z" transform="translate(-261.458 241.815)"/><path class="a" d="M399.322-276.469h-6.678a1.882,1.882,0,0,0-1.88,1.88v6.283a1.883,1.883,0,0,0,1.88,1.88h6.678a1.882,1.882,0,0,0,1.88-1.88v-6.283A1.882,1.882,0,0,0,399.322-276.469Zm-1.108,7.055h-4.463v-4.067h4.463Z" transform="translate(-333.522 310.971)"/><path class="a" d="M399.322-195.444h-6.678a1.882,1.882,0,0,0-1.88,1.88v6.284a1.882,1.882,0,0,0,1.88,1.88h6.678a1.882,1.882,0,0,0,1.88-1.88v-6.284A1.882,1.882,0,0,0,399.322-195.444Zm-1.108,7.056h-4.463v-4.068h4.463Z" transform="translate(-333.522 241.815)"/><path class="a" d="M283.783-347.589H263.614a1.494,1.494,0,0,0-1.494,1.494,1.494,1.494,0,0,0,1.494,1.494h20.169a1.494,1.494,0,0,0,1.494-1.494A1.494,1.494,0,0,0,283.783-347.589Z" transform="translate(-223.724 371.673)"/><path class="a" d="M227.494-347.589h-.6A1.494,1.494,0,0,0,225.4-346.1,1.494,1.494,0,0,0,226.9-344.6h.6a1.494,1.494,0,0,0,1.494-1.494A1.494,1.494,0,0,0,227.494-347.589Z" transform="translate(-192.384 371.673)"/></g></g></g></svg>