<svg xmlns="http://www.w3.org/2000/svg" xmlns:xlink="http://www.w3.org/1999/xlink" viewBox="-1590.227 1372.782 166.454 144.153"><defs><style>.a,.b{fill:#fff;}.a{clip-rule:evenodd;}.c{fill:#0cf278;fill-rule:evenodd;}.d{clip-path:url(#a);}.e{clip-path:url(#b);}</style><clipPath id="a"><path class="a" d="M1414.22-1310.648h75v-75h-75Z" transform="translate(-1414.22 1385.648)"/></clipPath><clipPath id="b"><rect class="b" width="75" height="75"/></clipPath></defs><g transform="translate(-1938 -757)"><path class="c" d="M444.227-641.593l-41.614,72.077H319.386l-41.613-72.077,41.613-72.076h83.227Z" transform="translate(70 2843.451)"/><g class="d" transform="translate(393.042 2164.83)"><g class="e"><path class="b" d="M71.551-480.472h-3.2a31.273,31.273,0,0,0-4.105-9.916l2.26-2.26a3.453,3.453,0,0,0,0-4.878l-4.982-4.982a3.426,3.426,0,0,0-2.439-1.01,3.427,3.427,0,0,0-2.439,1.01l-2.26,2.26a31.273,31.273,0,0,0-9.916-4.105v-3.2A3.453,3.453,0,0,0,41.023-511H33.978a3.453,3.453,0,0,0-3.449,3.449v3.2a31.276,31.276,0,0,0-9.916,4.105l-2.26-2.26a3.426,3.426,0,0,0-2.439-1.01,3.427,3.427,0,0,0-2.439,1.01l-4.982,4.982a3.453,3.453,0,0,0,0,4.878l2.26,2.26a31.274,31.274,0,0,0-4.105,9.916h-3.2A3.453,3.453,0,0,0,0-477.023v7.045a3.453,3.453,0,0,0,3.449,3.449h3.2a31.272,31.272,0,0,0,4.105,9.916l-2.26,2.26a3.427,3.427,0,0,0-1.01,2.439,3.427,3.427,0,0,0,1.01,2.439l4.982,4.982a3.427,3.427,0,0,0,2.439,1.01,3.427,3.427,0,0,0,2.439-1.01l2.26-2.26a31.275,31.275,0,0,0,9.916,4.105v3.2A3.453,3.453,0,0,0,33.978-436h7.045a3.453,3.453,0,0,0,3.449-3.449v-3.2a31.274,31.274,0,0,0,9.916-4.105l2.26,2.26a3.427,3.427,0,0,0,2.439,1.01,3.427,3.427,0,0,0,2.439-1.01l4.982-4.982a3.427,3.427,0,0,0,1.01-2.439,3.427,3.427,0,0,0-1.01-2.439l-2.26-2.26a31.275,31.275,0,0,0,4.105-9.916h3.2A3.453,3.453,0,0,0,75-469.977v-7.045A3.453,3.453,0,0,0,71.551-480.472ZM72.8-469.977a1.249,1.249,0,0,1-1.248,1.248H67.458a1.1,1.1,0,0,0-1.08.89,29.122,29.122,0,0,1-4.454,10.759,1.1,1.1,0,0,0,.135,1.393l2.892,2.892a1.24,1.24,0,0,1,.365.882,1.239,1.239,0,0,1-.365.882l-4.982,4.982a1.24,1.24,0,0,1-.882.365,1.239,1.239,0,0,1-.882-.365l-2.892-2.892a1.1,1.1,0,0,0-1.393-.135,29.123,29.123,0,0,1-10.759,4.454,1.1,1.1,0,0,0-.89,1.08v4.093a1.249,1.249,0,0,1-1.248,1.248H33.978a1.249,1.249,0,0,1-1.248-1.248v-4.092a1.1,1.1,0,0,0-.89-1.08,29.124,29.124,0,0,1-10.759-4.454,1.1,1.1,0,0,0-.615-.188,1.1,1.1,0,0,0-.779.322L16.8-446.049a1.239,1.239,0,0,1-.882.365,1.239,1.239,0,0,1-.882-.365l-4.982-4.982a1.24,1.24,0,0,1-.365-.882,1.239,1.239,0,0,1,.365-.882l2.892-2.892a1.1,1.1,0,0,0,.135-1.393A29.122,29.122,0,0,1,8.622-467.84a1.1,1.1,0,0,0-1.08-.89H3.449A1.249,1.249,0,0,1,2.2-469.977v-7.045a1.249,1.249,0,0,1,1.248-1.248H7.542a1.1,1.1,0,0,0,1.08-.89,29.125,29.125,0,0,1,4.454-10.759,1.1,1.1,0,0,0-.135-1.393L10.049-494.2a1.249,1.249,0,0,1,0-1.764l4.982-4.982a1.24,1.24,0,0,1,.882-.365,1.239,1.239,0,0,1,.882.365l2.892,2.892a1.1,1.1,0,0,0,1.393.135,29.125,29.125,0,0,1,10.759-4.454,1.1,1.1,0,0,0,.89-1.081v-4.092a1.249,1.249,0,0,1,1.248-1.248h7.045a1.249,1.249,0,0,1,1.248,1.248v4.092a1.1,1.1,0,0,0,.89,1.081,29.124,29.124,0,0,1,10.759,4.454,1.1,1.1,0,0,0,1.393-.135L58.2-500.95a1.239,1.239,0,0,1,.882-.365,1.239,1.239,0,0,1,.882.365l4.982,4.982a1.249,1.249,0,0,1,0,1.764l-2.892,2.892a1.1,1.1,0,0,0-.135,1.393,29.124,29.124,0,0,1,4.454,10.759,1.1,1.1,0,0,0,1.08.89h4.092a1.249,1.249,0,0,1,1.248,1.248Z" transform="translate(0 511)"/><path class="b" d="M106.2-384.764A20.057,20.057,0,0,1,126.236-404.8a19.907,19.907,0,0,1,7.795,1.573,1.1,1.1,0,0,0,1.443-.585,1.1,1.1,0,0,0-.585-1.443A22.1,22.1,0,0,0,126.236-407,22.261,22.261,0,0,0,104-384.764a22.287,22.287,0,0,0,4.946,13.984,1.1,1.1,0,0,0,.856.408,1.1,1.1,0,0,0,.692-.245,1.1,1.1,0,0,0,.163-1.548A20.079,20.079,0,0,1,106.2-384.764Z" transform="translate(-88.736 422.264)"/><path class="b" d="M190.912-318.892a1.1,1.1,0,0,0-.586,1.442,19.909,19.909,0,0,1,1.57,7.788,20.057,20.057,0,0,1-20.034,20.034,20.079,20.079,0,0,1-12.594-4.453,1.1,1.1,0,0,0-1.548.163,1.1,1.1,0,0,0,.163,1.548,22.287,22.287,0,0,0,13.979,4.943A22.261,22.261,0,0,0,194.1-309.662a22.1,22.1,0,0,0-1.743-8.644A1.1,1.1,0,0,0,190.912-318.892Z" transform="translate(-134.361 347.162)"/><path class="b" d="M338.917-373.05a20.208,20.208,0,0,1,2.993,2.994,1.1,1.1,0,0,0,.856.408,1.1,1.1,0,0,0,.692-.245,1.1,1.1,0,0,0,.164-1.548,22.4,22.4,0,0,0-3.32-3.32,1.1,1.1,0,0,0-1.548.163A1.1,1.1,0,0,0,338.917-373.05Z" transform="translate(-288.826 394.966)"/><path class="b" d="M153.539-375A17.559,17.559,0,0,0,136-357.461a17.559,17.559,0,0,0,17.539,17.539,17.559,17.559,0,0,0,17.539-17.539A17.559,17.559,0,0,0,153.539-375Zm0,32.877A15.355,15.355,0,0,1,138.2-357.461,15.355,15.355,0,0,1,153.539-372.8a15.355,15.355,0,0,1,15.338,15.338A15.355,15.355,0,0,1,153.539-342.123Z" transform="translate(-116.039 394.961)"/></g></g></g></svg>