<svg xmlns="http://www.w3.org/2000/svg" xmlns:xlink="http://www.w3.org/1999/xlink" viewBox="-1730 1770 166.454 144.153"><defs><style>.a,.b{fill:#fff;}.a{clip-rule:evenodd;}.c{fill:#420cf2;fill-rule:evenodd;}.d{clip-path:url(#a);}.e{clip-path:url(#b);}</style><clipPath id="a"><path class="a" d="M3498.53-536.9h75v-75h-75Z" transform="translate(-3498.53 611.895)"/></clipPath><clipPath id="b"><rect class="b" width="75" height="75"/></clipPath></defs><g transform="translate(-1938 -757)"><path class="c" d="M304.846-244.675,263.233-172.6H180.006l-41.614-72.076,41.614-72.077h83.227Z" transform="translate(69.608 2843.752)"/><g class="d" transform="translate(254 2561)"><g transform="translate(0 0)"><g class="e"><path class="b" d="M64.137-425.842h-4.2a7.68,7.68,0,0,1-3.068-6.23,7.675,7.675,0,0,1,3.09-6.245h1.1a1.468,1.468,0,0,0,1.468-1.468,1.468,1.468,0,0,0-1.468-1.468H58.041a7.53,7.53,0,0,0,1.644-4.7,7.531,7.531,0,0,0-1.644-4.7h5.364a1.468,1.468,0,0,0,1.468-1.468,1.468,1.468,0,0,0-1.468-1.468h-.734v-9.393h.734a1.468,1.468,0,0,0,1.468-1.468,1.468,1.468,0,0,0-1.468-1.468H15.216a5.358,5.358,0,0,0-5.382,5.32v4.624a5.358,5.358,0,0,0,5.382,5.32H16v9.393h-.44c-.02,0-.04,0-.061,0a9.243,9.243,0,0,0-9.175,9.17,9.071,9.071,0,0,0,2.489,6.238H1.468A1.468,1.468,0,0,0,0-424.375a1.468,1.468,0,0,0,1.468,1.468H2.912a9.486,9.486,0,0,1,3.967,7.829,9.507,9.507,0,0,1-3.823,7.729H1.468A1.468,1.468,0,0,0,0-405.882a1.468,1.468,0,0,0,1.468,1.468H64.137A10.8,10.8,0,0,0,75-415.128,10.8,10.8,0,0,0,64.137-425.842ZM36.252-460.654a2.41,2.41,0,0,1,1.864-2.321H59.736v3.229H52.25a1.468,1.468,0,0,0-1.468,1.468,1.468,1.468,0,0,0,1.468,1.468h7.485v3.229H39.054a1.474,1.474,0,0,0-.345-.042,2.429,2.429,0,0,1-2.457-2.395ZM23.483-447.418h-4.55v-3.229h33.02a4.752,4.752,0,0,1,4.8,4.7,4.752,4.752,0,0,1-4.8,4.7H18.933v-3.229h4.55a1.468,1.468,0,0,0,1.468-1.468A1.468,1.468,0,0,0,23.483-447.418Zm5.284-13.237a2.41,2.41,0,0,1,1.864-2.321h3.225a5.246,5.246,0,0,0-.539,2.321v4.635a5.246,5.246,0,0,0,.6,2.437H31.569a1.472,1.472,0,0,0-.345-.042,2.429,2.429,0,0,1-2.457-2.395v-4.635Zm-13.21,7.072h-.342a2.419,2.419,0,0,1-2.447-2.385v-4.624a2.419,2.419,0,0,1,2.447-2.385H26.371a5.246,5.246,0,0,0-.539,2.321v4.635a5.246,5.246,0,0,0,.6,2.437Zm.062,15.264h40.27a10.884,10.884,0,0,0-1.96,6.245,10.885,10.885,0,0,0,1.949,6.23H15.619a6.308,6.308,0,0,1-6.362-6.238A6.308,6.308,0,0,1,15.619-438.318Zm12.412,30.969H7.22a12.738,12.738,0,0,0,2.594-7.729,12.891,12.891,0,0,0-.109-1.665h11.43v5.806a1.468,1.468,0,0,0,.665,1.229,1.468,1.468,0,0,0,1.393.115l2.565-1.128,2.565,1.127a1.467,1.467,0,0,0,.59.124,1.468,1.468,0,0,0,.8-.239,1.468,1.468,0,0,0,.665-1.229v-7.274a1.468,1.468,0,0,0-1.468-1.468H8.964a12.456,12.456,0,0,0-1.823-3.229h20.89a7.863,7.863,0,0,1,7.927,7.779A7.863,7.863,0,0,1,28.032-407.349Zm-3.961-5.835v-3.558h3.376v3.558l-1.1-.482a1.468,1.468,0,0,0-1.181,0Zm40.067,5.835H35.49a10.615,10.615,0,0,0,3.4-7.779,10.614,10.614,0,0,0-3.4-7.779H59.261a1.46,1.46,0,0,0,.265.027,1.475,1.475,0,0,0,.267-.027h4.345a7.863,7.863,0,0,1,7.927,7.779A7.863,7.863,0,0,1,64.137-407.349Z" transform="translate(0 472.662)"/><path class="b" d="M198.424-234.458H186.829a1.468,1.468,0,0,0-1.468,1.468,1.468,1.468,0,0,0,1.468,1.468h11.595a1.468,1.468,0,0,0,1.468-1.468A1.468,1.468,0,0,0,198.424-234.458Z" transform="translate(-158.209 275.113)"/><path class="b" d="M315.513-129.252H298.047a1.468,1.468,0,0,0-1.468,1.468,1.468,1.468,0,0,0,1.468,1.468h17.466a1.468,1.468,0,0,0,1.468-1.468A1.468,1.468,0,0,0,315.513-129.252Z" transform="translate(-253.135 185.319)"/><path class="b" d="M179.963-339.663h-.147a1.468,1.468,0,0,0-1.468,1.468,1.468,1.468,0,0,0,1.468,1.468h.147a1.468,1.468,0,0,0,1.468-1.468A1.468,1.468,0,0,0,179.963-339.663Z" transform="translate(-152.223 364.908)"/></g></g></g></g></svg>