<svg xmlns="http://www.w3.org/2000/svg" xmlns:xlink="http://www.w3.org/1999/xlink" viewBox="-1868 1211.083 166.454 144.153"><defs><style>.a,.b{fill:none;}.a{clip-rule:evenodd;}.c{fill:#f31e06;fill-rule:evenodd;}.d{clip-path:url(#a);}.e{clip-path:url(#b);}.f{fill:#fff;}</style><clipPath id="a"><path class="a" d="M45.5-765.636h75.46v-75.312H45.5Z" transform="translate(0 966.601)"/></clipPath><clipPath id="b"><rect class="b" width="75.46" height="75.312" transform="translate(45.497 125.653)"/></clipPath></defs><g transform="translate(-1938 -757)"><path class="c" d="M166.454-803.292,124.84-731.215H41.613L0-803.292l41.613-72.076H124.84Z" transform="translate(70 2843.451)"/><g class="d" transform="translate(70 1876.85)"><g class="e"><path class="f" d="M73.986-2.942H72.807V-45.893a1.472,1.472,0,0,0-1.474-1.471H59.542a1.472,1.472,0,0,0-1.474,1.471v15.739a1.472,1.472,0,0,0,1.474,1.471,1.472,1.472,0,0,0,1.474-1.471V-44.422h8.843V-2.942H61.016v-12.8a1.472,1.472,0,0,0-1.474-1.471,1.472,1.472,0,0,0-1.474,1.471v12.8H54.531V-36.185a1.472,1.472,0,0,0-1.474-1.471H41.267a1.472,1.472,0,0,0-1.474,1.471V-2.942H35.666V-27.065a1.472,1.472,0,0,0-1.474-1.471H22.4a1.472,1.472,0,0,0-1.474,1.471V-2.942H17.391V-17.651a1.472,1.472,0,0,0-1.474-1.471H4.127a1.472,1.472,0,0,0-1.474,1.471V-2.942H1.474A1.472,1.472,0,0,0,0-1.471,1.472,1.472,0,0,0,1.474,0H73.986A1.472,1.472,0,0,0,75.46-1.471,1.472,1.472,0,0,0,73.986-2.942Zm-59.542,0H5.6V-16.18h8.843Zm18.275,0H23.876V-25.594h8.843Zm18.865,0H42.741V-34.714h8.843Z" transform="translate(45.497 200.965)"/><path class="f" d="M60.584-24.3a1.485,1.485,0,0,0-1.042-.43,1.485,1.485,0,0,0-1.042.43,1.481,1.481,0,0,0-.432,1.041,1.483,1.483,0,0,0,.432,1.04,1.486,1.486,0,0,0,1.042.431,1.486,1.486,0,0,0,1.042-.431,1.483,1.483,0,0,0,.432-1.04A1.481,1.481,0,0,0,60.584-24.3Z" transform="translate(45.497 200.965)"/><path class="f" d="M64.259-75.312a11.2,11.2,0,0,0-11.2,11.179,11.2,11.2,0,0,0,11.2,11.179,11.2,11.2,0,0,0,11.2-11.179A11.2,11.2,0,0,0,64.259-75.312Zm0,15.459a1.548,1.548,0,0,1-1.671-1.378A1.472,1.472,0,0,0,61.113-62.7a1.472,1.472,0,0,0-1.474,1.471,4.362,4.362,0,0,0,3.145,4.093v1.109a8.254,8.254,0,0,1-6.78-8.1,8.254,8.254,0,0,1,6.78-8.1v1.214A4.362,4.362,0,0,0,59.64-66.93a4.482,4.482,0,0,0,4.619,4.32,1.548,1.548,0,0,1,1.671,1.378A1.548,1.548,0,0,1,64.259-59.854Zm1.474,3.824v-1.109a4.362,4.362,0,0,0,3.145-4.093,4.482,4.482,0,0,0-4.619-4.32,1.548,1.548,0,0,1-1.671-1.378,1.548,1.548,0,0,1,1.671-1.378A1.548,1.548,0,0,1,65.93-66.93,1.472,1.472,0,0,0,67.4-65.459a1.472,1.472,0,0,0,1.474-1.471,4.362,4.362,0,0,0-3.145-4.093v-1.214a8.254,8.254,0,0,1,6.78,8.1A8.254,8.254,0,0,1,65.733-56.03Z" transform="translate(45.497 200.965)"/><path class="f" d="M52.468-56.283H46.7a1.472,1.472,0,0,0-1.474,1.471A1.472,1.472,0,0,0,46.7-53.341h2.212L33.152-37.614,25.146-45.6a1.476,1.476,0,0,0-2.084,0l-16.028,16a1.469,1.469,0,0,0,0,2.08,1.47,1.47,0,0,0,1.042.431,1.471,1.471,0,0,0,1.042-.431L24.1-42.484l8.006,7.99a1.476,1.476,0,0,0,2.084,0l16.8-16.767v2.208a1.472,1.472,0,0,0,1.474,1.471,1.472,1.472,0,0,0,1.474-1.471v-5.759A1.472,1.472,0,0,0,52.468-56.283Z" transform="translate(45.497 200.965)"/><path class="f" d="M5.285-25.782a1.486,1.486,0,0,0-1.042-.431,1.486,1.486,0,0,0-1.042.431,1.481,1.481,0,0,0-.432,1.04A1.481,1.481,0,0,0,3.2-23.7a1.487,1.487,0,0,0,1.042.431A1.486,1.486,0,0,0,5.285-23.7a1.481,1.481,0,0,0,.432-1.04A1.481,1.481,0,0,0,5.285-25.782Z" transform="translate(45.497 200.965)"/></g></g></g></svg>