<svg xmlns="http://www.w3.org/2000/svg" xmlns:xlink="http://www.w3.org/1999/xlink" viewBox="-1590.227 1850.081 166.454 144.153"><defs><style>.a,.b{fill:#fff;}.a{clip-rule:evenodd;}.c{fill:#e40cf2;fill-rule:evenodd;}.d{clip-path:url(#a);}.e{clip-path:url(#b);}</style><clipPath id="a"><path class="a" d="M1364.34-570.2h75v-75h-75Z" transform="translate(-1364.34 645.203)"/></clipPath><clipPath id="b"><rect class="b" width="75" height="75"/></clipPath></defs><g transform="translate(-1938 -757)"><path class="c" d="M444.227-164.294,402.613-92.217H319.386l-41.613-72.077,41.613-72.076h83.227Z" transform="translate(70 2843.451)"/><g class="d" transform="translate(393.86 2641.824)"><g transform="translate(0 0)"><g class="e"><path class="b" d="M320.978-324.844a1.32,1.32,0,0,0,.424.07,1.319,1.319,0,0,0,1.25-.9,2.328,2.328,0,0,1,2.946-1.452,4.97,4.97,0,0,0,6.293-3.1,1.321,1.321,0,0,0-.825-1.675,1.321,1.321,0,0,0-1.675.826,2.324,2.324,0,0,1-2.946,1.452,4.976,4.976,0,0,0-6.293,3.1A1.322,1.322,0,0,0,320.978-324.844Z" transform="translate(-273.103 358.248)"/><path class="b" d="M342.256-387.523a1.319,1.319,0,0,0,.424.07,1.319,1.319,0,0,0,1.25-.9,2.307,2.307,0,0,1,1.172-1.337,2.308,2.308,0,0,1,1.774-.115,4.97,4.97,0,0,0,6.293-3.106,1.322,1.322,0,0,0-.825-1.675,1.317,1.317,0,0,0-1.674.826,2.323,2.323,0,0,1-2.946,1.453,4.922,4.922,0,0,0-3.789.248,4.934,4.934,0,0,0-2.5,2.856A1.319,1.319,0,0,0,342.256-387.523Z" transform="translate(-291.258 411.729)"/><path class="b" d="M363.521-445.754a1.328,1.328,0,0,0,.425.07,1.319,1.319,0,0,0,1.25-.9,1.718,1.718,0,0,1,2.175-1.073,4.336,4.336,0,0,0,3.327-.216,4.331,4.331,0,0,0,2.2-2.506,1.321,1.321,0,0,0-.825-1.675,1.319,1.319,0,0,0-1.675.826,1.705,1.705,0,0,1-.866.987,1.7,1.7,0,0,1-1.311.083,4.366,4.366,0,0,0-5.524,2.724A1.322,1.322,0,0,0,363.521-445.754Z" transform="translate(-309.403 460.764)"/><path class="b" d="M109.025-477.695a1.717,1.717,0,0,0-.752-.281A92.9,92.9,0,0,0,112.54-502.8c.065-2.5-1.158-5.841-3.622-7.386a5.41,5.41,0,0,0-5.636-.061c-3.943,2.034-6.762,8.017-9.027,12.827l-.385.816a7.643,7.643,0,0,0-4.183-5.3,6.3,6.3,0,0,0-4.894-4.866,4.083,4.083,0,0,0-.1-.408,4.552,4.552,0,0,0-3.774-3.221,4.489,4.489,0,0,0-2.8.577,4.786,4.786,0,0,0-2.334-.608,4.863,4.863,0,0,0-4.727,3.743,5.947,5.947,0,0,0-4.369,5.664,6.6,6.6,0,0,0-4.948,6.4,6.615,6.615,0,0,0,.447,2.385,5.184,5.184,0,0,0-1.155,3.271,5.141,5.141,0,0,0,.43,2.064,7.014,7.014,0,0,0-5.258-2.538,1.322,1.322,0,0,0-1.279,1.361,1.32,1.32,0,0,0,1.319,1.279c.045,0,.086,0,.128,0a4.584,4.584,0,0,1,3.223,1.769c-2.093.6-4.617,1.585-5.794,3.805a6.722,6.722,0,0,0-.319,4.865,2.289,2.289,0,0,0-.33,1.3L55.4-443.138A7.518,7.518,0,0,0,62.907-436H99.958a7.512,7.512,0,0,0,7.51-7.114l2.3-33.034c0-.008,0-.016,0-.024A1.711,1.711,0,0,0,109.025-477.695ZM94.947-492.83c.523-.975,1.093-2.184,1.7-3.466,1.984-4.213,4.7-9.982,7.848-11.606a2.877,2.877,0,0,1,3.024-.05,6.376,6.376,0,0,1,2.386,5.083,90.394,90.394,0,0,1-4.238,24.41c-.086.276-.276.833-.546,1.6l-2.249,1a1.227,1.227,0,0,0-.143.075,4.177,4.177,0,0,1-2.107.59,4.172,4.172,0,0,1-2.105-.59l-.941-.565a6.811,6.811,0,0,0-3.508-.974l-.045,0a6.8,6.8,0,0,0-3.553.971l-.94.565a4.145,4.145,0,0,1-1.689.533c.033-.115.071-.227.106-.341q.542-1.843,1.156-3.643c.154-.457.315-.911.476-1.363q.509-1.431,1.061-2.833c.164-.418.323-.841.492-1.255A87.849,87.849,0,0,1,94.947-492.83ZM78.121-489.7c.154-.2.3-.391.447-.578a.007.007,0,0,1,0-.005,3.253,3.253,0,0,0,.272-.426,2.829,2.829,0,0,0,.251-1.968l5.509-1.205a3.018,3.018,0,0,0,.14.492,2.96,2.96,0,0,0,1.3,1.458c.2.111.41.222.627.337.178.094.356.191.536.289.086.046.173.092.259.14.157.088.309.186.462.282.131.081.26.164.387.252.146.1.286.214.426.327.123.1.24.21.356.322s.249.248.364.385a4.536,4.536,0,0,1,.558.8c-.56,1.235-1.086,2.5-1.6,3.767-.079.2-.164.388-.242.585a13.471,13.471,0,0,0-4.571,2.282,7.768,7.768,0,0,1-6.464,1.569l-.8-3.668C75.8-486.744,76.982-488.246,78.121-489.7Zm6.545-8.016a.546.546,0,0,1,.1-.011.555.555,0,0,1,.537.429.538.538,0,0,1-.077.412.54.54,0,0,1-.339.238l-7.291,1.6a.553.553,0,0,1-.649-.417.553.553,0,0,1,.417-.649l3.874-.847ZM80.4-477.3c-.1.007-.2.009-.3.02a6.772,6.772,0,0,0-2.1.558l-.252-1.155c.38.032.759.063,1.114.063a10.207,10.207,0,0,0,6.285-2.2,16.163,16.163,0,0,1,1.829-1.139c-.121.344-.242.688-.359,1.033-.084.248-.176.492-.257.742q-.582,1.762-1.1,3.553l-.878-.525a6.812,6.812,0,0,0-3.508-.974l-.049,0C80.678-477.324,80.539-477.308,80.4-477.3ZM64.614-490.949l.865-.713-.561-.967a3.976,3.976,0,0,1-.537-1.988,3.968,3.968,0,0,1,3.813-3.972l1.6-.067-.374-1.56a3.253,3.253,0,0,1-.1-.763,3.286,3.286,0,0,1,3.023-3.261l1.22-.092v-1.313a2.217,2.217,0,0,1,2.213-2.141,2.179,2.179,0,0,1,1.474.578l.925.836.887-.876a1.868,1.868,0,0,1,1.54-.523,1.9,1.9,0,0,1,1.552,1.344,1.72,1.72,0,0,1,.062.7l-.154,1.474h1.486a3.634,3.634,0,0,1,3.614,3.375l.059.867.82.288a5.031,5.031,0,0,1,3.374,4.861,4.764,4.764,0,0,1-.866,2.62,13.964,13.964,0,0,0-2.634-1.676c-.207-.11-.408-.215-.61-.327a.289.289,0,0,1-.149-.226.753.753,0,0,1,.183-.586,2.833,2.833,0,0,0,.62-2.438l-.16-.727a2.793,2.793,0,0,0-1.231-1.767,2.789,2.789,0,0,0-2.117-.38l-.354.078h-.012l-3.874.847-3.78.825a2.79,2.79,0,0,0-1.766,1.231,2.794,2.794,0,0,0-.381,2.118l.079.359v0s0,0,0,.005l.078.358a2.808,2.808,0,0,0,1.633,1.976.8.8,0,0,1,.437.426c.034.1.015.148-.062.275h0c-.131.176-.272.354-.416.537s-.3.379-.449.579c-.051.067-.1.137-.152.206-.11.149-.219.3-.327.459-.059.086-.116.174-.174.264-.1.154-.2.314-.292.478-.055.1-.11.189-.162.288-.1.185-.189.379-.277.577-.038.084-.079.165-.114.253a7.282,7.282,0,0,0-.3.905c-.013.05-.018.1-.03.156a7.2,7.2,0,0,0-.148.838c-.013.116-.016.238-.024.358-.011.156-.03.3-.03.466l-.016-.02c-.018-.024-.037-.045-.054-.069-.23-.3-.459-.581-.69-.845-.073-.083-.146-.164-.22-.243q-.291-.315-.583-.591c-.063-.059-.127-.124-.191-.182a9.118,9.118,0,0,0-.744-.6c-.07-.05-.141-.092-.211-.14-.187-.125-.375-.242-.565-.344-.092-.05-.183-.1-.277-.144a5.733,5.733,0,0,0-.594-.25c-.066-.024-.132-.055-.2-.077a5.518,5.518,0,0,0-.653-.165c-.025-.005-.05,0-.075-.007-.045-.008-.088-.025-.133-.032-.153-.022-.3-.013-.449-.024-.106-.007-.21-.029-.315-.029-.032,0-.065.008-.1.008a5.332,5.332,0,0,0-.6.051c-.1.013-.2.021-.3.04a6.194,6.194,0,0,0-.762.193c-.038.012-.075.021-.114.034a8.273,8.273,0,0,0-1.864.92,2.515,2.515,0,0,1-.183-.945A2.57,2.57,0,0,1,64.614-490.949Zm-8.48,10.959c.558-1.052,1.914-1.854,4.267-2.528a7.123,7.123,0,0,0,2.951-1.693c.376-.36.729-.665,1.069-.942a5.871,5.871,0,0,1,2.811-1.441l.055-.007a2.682,2.682,0,0,1,.764.022c.065.012.131.034.2.051a2.771,2.771,0,0,1,.367.11c.079.03.158.077.239.114a3.831,3.831,0,0,1,.343.176c.09.054.18.124.269.186.107.075.214.144.322.231s.2.178.3.269.2.174.3.276.223.243.335.368c.091.1.182.2.275.3.125.15.252.322.379.488.081.106.16.2.24.313.144.2.289.424.434.645.063.1.128.185.191.285q.315.5.634,1.059a10.028,10.028,0,0,1,.871,6.453c-.07-.007-.139-.017-.209-.028a4.1,4.1,0,0,1-1.428-.511l-.941-.565a6.812,6.812,0,0,0-3.508-.974l-.045,0a6.8,6.8,0,0,0-3.553.971l-.458.275a5.114,5.114,0,0,1-2.588.729,5.1,5.1,0,0,1-2.588-.729l-1.775-1.066a0,0,0,0,1,0,0,2.262,2.262,0,0,0-.744-.281A3.794,3.794,0,0,1,56.133-479.99Zm48.705,36.717a4.881,4.881,0,0,1-4.876,4.633H62.911a4.886,4.886,0,0,1-4.877-4.658l-2.2-31.2,1.148.689a7.749,7.749,0,0,0,4.036,1.106,7.746,7.746,0,0,0,4.036-1.106l.458-.275a4.161,4.161,0,0,1,2.105-.591,4.169,4.169,0,0,1,2.107.591l.941.565a6.788,6.788,0,0,0,3.873.948c.119-.005.238-.005.358-.016.015,0,.028-.009.044-.011a6.787,6.787,0,0,0,2.6-.85,1.247,1.247,0,0,0,.23-.071l.941-.565a4.161,4.161,0,0,1,2.105-.591,4.169,4.169,0,0,1,2.107.591l.941.565a6.818,6.818,0,0,0,3.228.954c.022,0,.046,0,.069,0a6.745,6.745,0,0,0,1.154-.054c.219-.028.432-.083.647-.132.1-.025.209-.048.312-.078a6.767,6.767,0,0,0,1.695-.7l.941-.565a4.161,4.161,0,0,1,2.105-.591,4.169,4.169,0,0,1,2.107.591l.941.565a6.812,6.812,0,0,0,3.536.969c.02,0,.041,0,.061,0a6.815,6.815,0,0,0,3.436-.929l2.59-1.151a1.4,1.4,0,0,0,.147-.1l.2-.09Z" transform="translate(-45.346 511.001)"/><path class="b" d="M99.441-139.618h9.239a1.32,1.32,0,0,0,1.32-1.32,1.32,1.32,0,0,0-1.32-1.32H99.441a1.32,1.32,0,0,0-1.32,1.32A1.32,1.32,0,0,0,99.441-139.618Z" transform="translate(-83.72 196.378)"/><path class="b" d="M99.441-103.647H111.32a1.32,1.32,0,0,0,1.32-1.32,1.32,1.32,0,0,0-1.32-1.32H99.441a1.32,1.32,0,0,0-1.32,1.32A1.32,1.32,0,0,0,99.441-103.647Z" transform="translate(-83.72 165.687)"/><path class="b" d="M113.96-70.315H99.441A1.32,1.32,0,0,0,98.121-69a1.32,1.32,0,0,0,1.32,1.32H113.96a1.32,1.32,0,0,0,1.32-1.32A1.32,1.32,0,0,0,113.96-70.315Z" transform="translate(-83.72 134.995)"/><path class="b" d="M236.973-70.315h-2.64a1.32,1.32,0,0,0-1.32,1.32,1.32,1.32,0,0,0,1.32,1.32h2.64a1.32,1.32,0,0,0,1.32-1.32A1.32,1.32,0,0,0,236.973-70.315Z" transform="translate(-198.814 134.995)"/></g></g></g></g></svg>