<svg xmlns="http://www.w3.org/2000/svg" xmlns:xlink="http://www.w3.org/1999/xlink" viewBox="-1730 1931 166.454 144.153"><defs><style>.a,.d{fill:#fff;}.b{fill:#f20caf;}.b,.d{fill-rule:evenodd;}.c{clip-path:url(#a);}</style><clipPath id="a"><rect class="a" width="75" height="75"/></clipPath></defs><g transform="translate(-1938 -757)"><path class="b" d="M304.846-83.227,263.233-11.15H180.006L138.392-83.227,180.006-155.3h83.227Z" transform="translate(69.608 2843.303)"/><g transform="translate(250 2723)"><g transform="translate(0 0)"><g class="c"><path class="a" d="M73.535-503.1h-8.2a7.637,7.637,0,0,0-7.6-6.936,7.637,7.637,0,0,0-7.6,6.936H33.784v-1.274A7.635,7.635,0,0,0,26.158-512a7.635,7.635,0,0,0-7.626,7.626v1.274H10.365A1.465,1.465,0,0,0,8.9-501.635v8.166H7.627A7.635,7.635,0,0,0,0-485.842a7.635,7.635,0,0,0,7.626,7.626H8.9v17.351a1.465,1.465,0,0,0,1.465,1.465H13.59a5.149,5.149,0,0,1,5.143,5.143,5.149,5.149,0,0,1-5.143,5.143H10.365A1.465,1.465,0,0,0,8.9-447.649v9.184A1.465,1.465,0,0,0,10.365-437h63.17A1.465,1.465,0,0,0,75-438.465v-63.17A1.465,1.465,0,0,0,73.535-503.1Zm-63.17,21.954H7.626a4.7,4.7,0,0,1-4.7-4.7,4.7,4.7,0,0,1,4.7-4.7h2.739A1.465,1.465,0,0,0,11.83-492v-8.166H20a1.465,1.465,0,0,0,1.465-1.465v-2.739a4.7,4.7,0,0,1,4.7-4.7,4.7,4.7,0,0,1,4.7,4.7v2.739a1.465,1.465,0,0,0,1.465,1.465h8.166V-492a1.465,1.465,0,0,0,1.465,1.465h2.739a4.7,4.7,0,0,1,4.7,4.7,4.7,4.7,0,0,1-4.7,4.7H41.95a1.465,1.465,0,0,0-1.465,1.465v8.166H26.766v-7.9a1.465,1.465,0,0,0-1.465-1.465,1.465,1.465,0,0,0-1.465,1.465v7.9H11.83v-8.166A1.465,1.465,0,0,0,10.365-481.146ZM41.95-449.564a1.465,1.465,0,0,0-1.465,1.465v8.169h-9.35v-7.9a1.465,1.465,0,0,0-1.465-1.465,1.465,1.465,0,0,0-1.465,1.465v7.9H11.83v-6.255h1.76a8.082,8.082,0,0,0,8.073-8.073,8.082,8.082,0,0,0-8.073-8.073H11.83v-6.255H40.485v8.169a1.465,1.465,0,0,0,1.465,1.465h.866a4.7,4.7,0,0,1,4.694,4.694,4.7,4.7,0,0,1-4.694,4.694Zm30.12-1.667h-7.9a1.465,1.465,0,0,0-1.465,1.465A1.465,1.465,0,0,0,64.17-448.3h7.9v8.371H43.415v-6.727a7.634,7.634,0,0,0,7.025-7.6,7.634,7.634,0,0,0-7.025-7.6v-6.727h6.7v3.238a7.635,7.635,0,0,0,7.626,7.626,7.635,7.635,0,0,0,7.626-7.626v-3.238h6.7Zm0-37.314h-7.9a1.465,1.465,0,0,0-1.465,1.465,1.465,1.465,0,0,0,1.465,1.465h7.9v14.1H63.9a1.465,1.465,0,0,0-1.465,1.465v4.7a4.7,4.7,0,0,1-4.7,4.7,4.7,4.7,0,0,1-4.7-4.7v-4.7a1.465,1.465,0,0,0-1.465-1.465H43.415v-6.7h1.274a7.635,7.635,0,0,0,7.626-7.626,7.635,7.635,0,0,0-7.626-7.626H43.415v-6.7h8.166a1.465,1.465,0,0,0,1.465-1.465v-.774a4.7,4.7,0,0,1,4.7-4.7,4.7,4.7,0,0,1,4.7,4.7v.774A1.465,1.465,0,0,0,63.9-500.17H72.07Z" transform="translate(0 512)"/><path class="d" d="M194.015-121.53a1.466,1.466,0,0,1,1.465,1.465,1.466,1.466,0,0,1-1.465,1.465,1.466,1.466,0,0,1-1.465-1.465A1.466,1.466,0,0,1,194.015-121.53Z" transform="translate(-164.344 178.728)"/><path class="d" d="M391.935-97.15a1.466,1.466,0,0,1,1.465,1.465,1.466,1.466,0,0,1-1.465,1.465,1.466,1.466,0,0,1-1.465-1.465A1.466,1.466,0,0,1,391.935-97.15Z" transform="translate(-333.272 157.919)"/><path class="d" d="M391.935-351.88a1.466,1.466,0,0,1,1.465,1.465,1.466,1.466,0,0,1-1.465,1.465,1.466,1.466,0,0,1-1.465-1.465A1.466,1.466,0,0,1,391.935-351.88Z" transform="translate(-333.272 375.335)"/><path class="d" d="M164.185-337.15a1.466,1.466,0,0,1,1.465,1.465,1.466,1.466,0,0,1-1.465,1.465,1.466,1.466,0,0,1-1.465-1.465A1.466,1.466,0,0,1,164.185-337.15Z" transform="translate(-138.884 362.763)"/></g></g></g></g></svg>