<svg xmlns="http://www.w3.org/2000/svg" xmlns:xlink="http://www.w3.org/1999/xlink" viewBox="-1729.608 1444.858 166.454 144.153"><defs><style>.a{fill:#fff;}.b{fill:#0cf227;fill-rule:evenodd;}.c{clip-path:url(#a);}</style><clipPath id="a"><rect class="a" width="75" height="75"/></clipPath></defs><g transform="translate(-1938 -757)"><path class="b" d="M304.846-569.516,263.233-497.44H180.006l-41.614-72.076,41.614-72.077h83.227Z" transform="translate(70 2843.451)"/><g transform="translate(253.806 2236.91)"><g class="c"><path class="a" d="M62.562-467.989v-16.085a6.423,6.423,0,0,0-3.15-5.557,6.464,6.464,0,0,0-3.219-.926,6.458,6.458,0,0,0-3.234.772L50-488.2v.032L28.482-476.638a6.467,6.467,0,0,0-3.154,3.889l-16.284.995A4.289,4.289,0,0,0,5.113-468h-1.1A4.016,4.016,0,0,0,0-463.983v6.972A4.017,4.017,0,0,0,4.014-453H5.12a4.755,4.755,0,0,0,4.365,4.167l.58.035v21.609a5.632,5.632,0,0,0,5.625,5.625,5.632,5.632,0,0,0,5.625-5.625V-448.11l4.047.246a6.428,6.428,0,0,0,3.285,3.869L50-433.319v.032l3.124,1.562a6.47,6.47,0,0,0,2.9.69l.03,0,.035,0a6.471,6.471,0,0,0,3.4-.972,6.438,6.438,0,0,0,3.072-5.511V-453a6.252,6.252,0,0,0,6.185-6.243v-2.5A6.252,6.252,0,0,0,62.562-467.989Zm-43.748,40.8a3.128,3.128,0,0,1-3.125,3.125,3.128,3.128,0,0,1-3.125-3.125V-428h2.5a1.249,1.249,0,0,0,1.25-1.25,1.249,1.249,0,0,0-1.25-1.25h-2.5V-433h2.5a1.249,1.249,0,0,0,1.25-1.25,1.249,1.249,0,0,0-1.25-1.25h-2.5V-438h2.5a1.249,1.249,0,0,0,1.25-1.25,1.249,1.249,0,0,0-1.25-1.25h-2.5V-443h2.5a1.249,1.249,0,0,0,1.25-1.25,1.249,1.249,0,0,0-1.25-1.25h-2.5v-3.14l6.25.387ZM54.3-433.961l-1.807-.9v-51.8l1.706-.914a3.957,3.957,0,0,1,1.666-.45c.08,0,.157-.026.237-.025h.021a3.968,3.968,0,0,1,1.934.567A3.941,3.941,0,0,1,60-484.074v46.555a3.95,3.95,0,0,1-1.887,3.384,3.969,3.969,0,0,1-1.889.591A3.971,3.971,0,0,1,54.3-433.961ZM5-455.5H4.014A1.515,1.515,0,0,1,2.5-457.009v-6.972A1.515,1.515,0,0,1,4.014-465.5H5Zm2.565,1.934V-467.48a1.79,1.79,0,0,1,1.645-1.781l15.854-.967v19.842L9.65-451.323A2.253,2.253,0,0,1,7.565-453.563Zm22.2,7.332a3.954,3.954,0,0,1-2.2-3.559v-21.136a3.971,3.971,0,0,1,2.1-3.507L50-485.328v49.213Zm36.483-13.016a3.75,3.75,0,0,1-3.685,3.744v-9.987a3.751,3.751,0,0,1,3.685,3.744Z" transform="translate(0 493.56)"/><path class="a" d="M479.169-344.809a1.251,1.251,0,0,0-1.742-.3,1.25,1.25,0,0,0-.3,1.742,12.165,12.165,0,0,1,2.271,6.812,11.69,11.69,0,0,1-2.266,6.738,1.251,1.251,0,0,0,.286,1.745,1.245,1.245,0,0,0,.727.235,1.246,1.246,0,0,0,1.016-.521,14.236,14.236,0,0,0,2.735-8.26A14.622,14.622,0,0,0,479.169-344.809Z" transform="translate(-406.902 369.653)"/><path class="a" d="M214.259-387.228a1.249,1.249,0,0,0-1.675-.566l-5.563,2.751a4.977,4.977,0,0,0-2.631,4.395v2.725a1.249,1.249,0,0,0,1.25,1.25,1.249,1.249,0,0,0,1.25-1.25v-2.725a2.465,2.465,0,0,1,1.276-2.171l5.528-2.734A1.25,1.25,0,0,0,214.259-387.228Z" transform="translate(-174.391 405.989)"/><path class="a" d="M205.64-302.761a1.249,1.249,0,0,0-1.25,1.25v2.5a1.249,1.249,0,0,0,1.25,1.25,1.249,1.249,0,0,0,1.25-1.25v-2.5A1.25,1.25,0,0,0,205.64-302.761Z" transform="translate(-174.391 333.324)"/></g></g></g></svg>