<svg xmlns="http://www.w3.org/2000/svg" xmlns:xlink="http://www.w3.org/1999/xlink" viewBox="-1590.227 1211.083 166.454 144.153"><defs><style>.a,.b{fill:#fff;}.a{clip-rule:evenodd;}.c{fill:#f2ae0c;fill-rule:evenodd;}.d{clip-path:url(#a);}.e{clip-path:url(#b);}</style><clipPath id="a"><path class="a" d="M2767.85-1289.152h75v-75h-75Z" transform="translate(-2767.85 1364.152)"/></clipPath><clipPath id="b"><rect class="b" width="75" height="75"/></clipPath></defs><g transform="translate(-1938 -757)"><path class="c" d="M444.227-803.292l-41.614,72.077H319.386l-41.613-72.077,41.613-72.076h83.227Z" transform="translate(70 2843.451)"/><g class="d" transform="translate(393.502 2002.648)"><g transform="translate(0 0)"><g class="e"><path class="b" d="M231.74-510.05a4.776,4.776,0,0,0-3.473-1.505,4.777,4.777,0,0,0-3.473,1.505,4.776,4.776,0,0,0-1.276,3.564l.239,3.669h0a4.594,4.594,0,0,0,2.049,3.549,4.514,4.514,0,0,0,2.462.729,4.515,4.515,0,0,0,2.462-.728,4.594,4.594,0,0,0,2.049-3.55l.239-3.669A4.776,4.776,0,0,0,231.74-510.05Zm-1.705,3.37-.239,3.669a1.593,1.593,0,0,1-.695,1.239,1.532,1.532,0,0,1-1.668,0,1.6,1.6,0,0,1-.695-1.239l-.239-3.669a1.755,1.755,0,0,1,.475-1.327,1.754,1.754,0,0,1,1.293-.56,1.755,1.755,0,0,1,1.293.56A1.754,1.754,0,0,1,230.035-506.68Z" transform="translate(-190.766 511.62)"/><path class="b" d="M198.824-411.755l-.415-2.291a7.477,7.477,0,0,0-5.939-5.983,7.477,7.477,0,0,0-1.379-.129h-1.25a1.5,1.5,0,0,0-1.056.438,2.5,2.5,0,0,1-1.777.736,2.5,2.5,0,0,1-1.777-.736,1.5,1.5,0,0,0-1.056-.438h-1.25a7.478,7.478,0,0,0-1.379.129,7.477,7.477,0,0,0-5.939,5.983l-.415,2.291a1.494,1.494,0,0,0,.323,1.224,1.5,1.5,0,0,0,1.147.536h20.693a1.493,1.493,0,0,0,1.147-.536A1.5,1.5,0,0,0,198.824-411.755Zm-20.374-1.228.1-.531a4.473,4.473,0,0,1,3.552-3.579,4.471,4.471,0,0,1,.826-.077h.686a5.46,5.46,0,0,0,3.4,1.174,5.459,5.459,0,0,0,3.4-1.174h.686a4.472,4.472,0,0,1,.826.077,4.473,4.473,0,0,1,3.552,3.579l.1.531Z" transform="translate(-149.507 433.611)"/><path class="b" d="M231.74-159.715a4.776,4.776,0,0,0-3.473-1.505,4.777,4.777,0,0,0-3.473,1.505,4.776,4.776,0,0,0-1.276,3.564l.239,3.669a4.594,4.594,0,0,0,2.049,3.549,4.515,4.515,0,0,0,2.462.729,4.514,4.514,0,0,0,2.462-.729,4.594,4.594,0,0,0,2.049-3.55l.239-3.669A4.776,4.776,0,0,0,231.74-159.715Zm-1.705,3.369-.239,3.669a1.593,1.593,0,0,1-.695,1.239,1.531,1.531,0,0,1-1.668,0,1.594,1.594,0,0,1-.695-1.239l-.239-3.669a1.755,1.755,0,0,1,.475-1.327,1.754,1.754,0,0,1,1.293-.56,1.754,1.754,0,0,1,1.293.56A1.753,1.753,0,0,1,230.035-156.345Z" transform="translate(-190.766 212.604)"/><path class="b" d="M198.824-61.42l-.415-2.291a7.477,7.477,0,0,0-5.939-5.983,7.473,7.473,0,0,0-1.379-.129h-1.25a1.494,1.494,0,0,0-1.056.438,2.516,2.516,0,0,1-3.554,0,1.5,1.5,0,0,0-1.056-.438h-1.25a7.485,7.485,0,0,0-1.379.129,7.477,7.477,0,0,0-5.939,5.983l-.415,2.291a1.494,1.494,0,0,0,.323,1.224,1.5,1.5,0,0,0,1.147.536h20.693A1.492,1.492,0,0,0,198.5-60.2,1.494,1.494,0,0,0,198.824-61.42ZM178.45-62.648l.1-.531a4.473,4.473,0,0,1,3.551-3.579,4.477,4.477,0,0,1,.827-.077h.687a5.512,5.512,0,0,0,6.794,0h.687a4.482,4.482,0,0,1,.826.077,4.473,4.473,0,0,1,3.552,3.579l.1.531Z" transform="translate(-149.507 134.595)"/><path class="b" d="M56.573-334.88a4.777,4.777,0,0,0-3.473-1.506,4.777,4.777,0,0,0-3.474,1.506,4.776,4.776,0,0,0-1.276,3.564l.239,3.669a4.594,4.594,0,0,0,2.049,3.55,4.516,4.516,0,0,0,2.462.729,4.515,4.515,0,0,0,2.462-.728,4.593,4.593,0,0,0,2.048-3.549l.239-3.669A4.777,4.777,0,0,0,56.573-334.88Zm-1.705,3.369-.239,3.669a1.592,1.592,0,0,1-.695,1.238,1.531,1.531,0,0,1-1.668,0,1.594,1.594,0,0,1-.695-1.238l-.239-3.669a1.754,1.754,0,0,1,.475-1.327,1.754,1.754,0,0,1,1.293-.56,1.755,1.755,0,0,1,1.293.56A1.755,1.755,0,0,1,54.867-331.511Z" transform="translate(-41.259 362.11)"/><path class="b" d="M23.656-236.588l-.415-2.291a7.477,7.477,0,0,0-5.939-5.983,7.475,7.475,0,0,0-1.38-.129h-1.25a1.5,1.5,0,0,0-1.056.438,2.516,2.516,0,0,1-3.554,0,1.5,1.5,0,0,0-1.056-.438H7.755a7.48,7.48,0,0,0-1.379.129A7.477,7.477,0,0,0,.437-238.88l-.415,2.291a1.494,1.494,0,0,0,.323,1.224,1.5,1.5,0,0,0,1.147.536H22.186a1.493,1.493,0,0,0,1.146-.536A1.494,1.494,0,0,0,23.656-236.588ZM3.282-237.816l.1-.531a4.473,4.473,0,0,1,3.552-3.579A4.47,4.47,0,0,1,7.756-242h.686a5.46,5.46,0,0,0,3.4,1.174,5.46,5.46,0,0,0,3.4-1.174h.686a4.47,4.47,0,0,1,.826.077,4.473,4.473,0,0,1,3.552,3.579l.1.531Z" transform="translate(0.001 284.103)"/><path class="b" d="M406.908-334.882a4.776,4.776,0,0,0-3.473-1.505,4.777,4.777,0,0,0-3.473,1.506,4.776,4.776,0,0,0-1.276,3.564l.239,3.669a4.593,4.593,0,0,0,2.048,3.55,4.514,4.514,0,0,0,2.462.729,4.514,4.514,0,0,0,2.462-.729,4.593,4.593,0,0,0,2.049-3.55l.239-3.669A4.776,4.776,0,0,0,406.908-334.882Zm-1.705,3.369-.239,3.669a1.592,1.592,0,0,1-.695,1.238,1.532,1.532,0,0,1-1.668,0,1.594,1.594,0,0,1-.695-1.238l-.239-3.669a1.755,1.755,0,0,1,.475-1.327,1.754,1.754,0,0,1,1.293-.56,1.754,1.754,0,0,1,1.293.56A1.754,1.754,0,0,1,405.2-331.512Z" transform="translate(-340.275 362.111)"/><path class="b" d="M373.991-236.588l-.415-2.291a7.477,7.477,0,0,0-5.939-5.983,7.478,7.478,0,0,0-1.379-.129h-1.25a1.5,1.5,0,0,0-1.056.438,2.516,2.516,0,0,1-3.554,0,1.494,1.494,0,0,0-1.056-.438h-1.25a7.474,7.474,0,0,0-1.379.129,7.478,7.478,0,0,0-5.939,5.983l-.415,2.291a1.494,1.494,0,0,0,.323,1.224,1.5,1.5,0,0,0,1.147.536h20.694a1.493,1.493,0,0,0,1.146-.536A1.494,1.494,0,0,0,373.991-236.588Zm-20.374-1.228.1-.531a4.473,4.473,0,0,1,3.552-3.579,4.467,4.467,0,0,1,.826-.077h.686a5.46,5.46,0,0,0,3.4,1.174,5.46,5.46,0,0,0,3.4-1.174h.686a4.472,4.472,0,0,1,.826.077,4.473,4.473,0,0,1,3.552,3.579l.1.531Z" transform="translate(-299.015 284.103)"/><path class="b" d="M103.882-451.687a1.494,1.494,0,0,0-1.894-.936,30.385,30.385,0,0,0-14.842,11.017,1.494,1.494,0,0,0,.345,2.085,1.487,1.487,0,0,0,.869.279,1.492,1.492,0,0,0,1.216-.624,27.374,27.374,0,0,1,13.37-9.926A1.494,1.494,0,0,0,103.882-451.687Z" transform="translate(-74.142 461.388)"/><path class="b" d="M353.39-429.235a30.417,30.417,0,0,0-9.815-8.783,1.494,1.494,0,0,0-2.033.574,1.494,1.494,0,0,0,.574,2.033,27.416,27.416,0,0,1,8.844,7.915,1.492,1.492,0,0,0,1.216.624,1.485,1.485,0,0,0,.868-.28A1.494,1.494,0,0,0,353.39-429.235Z" transform="translate(-291.349 449.018)"/><path class="b" d="M311.488-452.352c-.254-.094-.513-.185-.771-.272a1.494,1.494,0,0,0-1.894.936,1.494,1.494,0,0,0,.936,1.894c.232.078.465.161.694.246a1.492,1.492,0,0,0,.517.093,1.494,1.494,0,0,0,1.4-.977A1.494,1.494,0,0,0,311.488-452.352Z" transform="translate(-263.517 461.389)"/><path class="b" d="M102.946-151.266a27.371,27.371,0,0,1-13.37-9.926,1.494,1.494,0,0,0-2.084-.345,1.494,1.494,0,0,0-.345,2.085,30.385,30.385,0,0,0,14.842,11.017,1.5,1.5,0,0,0,.479.079,1.5,1.5,0,0,0,1.415-1.016A1.494,1.494,0,0,0,102.946-151.266Z" transform="translate(-74.142 213.113)"/><path class="b" d="M325.215-161.535a1.494,1.494,0,0,0-2.084.345,27.371,27.371,0,0,1-13.37,9.926,1.494,1.494,0,0,0-.936,1.894,1.5,1.5,0,0,0,1.415,1.016,1.494,1.494,0,0,0,.479-.079,29.972,29.972,0,0,0,14.842-11.017A1.494,1.494,0,0,0,325.215-161.535Z" transform="translate(-263.518 213.111)"/></g></g></g></g></svg>