<svg xmlns="http://www.w3.org/2000/svg" xmlns:xlink="http://www.w3.org/1999/xlink" viewBox="-1868 1690 166.454 144.154"><defs><style>.a{fill:#fff;}.b{fill:#0c79f2;fill-rule:evenodd;}.c{clip-path:url(#a);}</style><clipPath id="a"><rect class="a" width="75" height="75"/></clipPath></defs><g transform="translate(-1938 -757)"><path class="b" d="M166.454-324.172,124.84-252.1H41.613L0-324.172l41.613-72.077H124.84Z" transform="translate(70 2843.249)"/><g transform="translate(116 2482)"><g class="c"><path class="a" d="M68.794-457.808H52.739v-3.927a8.825,8.825,0,0,0-8.815-8.815H31.076a8.825,8.825,0,0,0-8.815,8.815v3.927H6.206A6.213,6.213,0,0,0,0-451.6v37.7a6.213,6.213,0,0,0,6.206,6.206H68.794A6.213,6.213,0,0,0,75-413.9v-37.7A6.213,6.213,0,0,0,68.794-457.808Zm-43.545-3.927a5.833,5.833,0,0,1,5.827-5.827H43.924a5.833,5.833,0,0,1,5.827,5.827v3.927h-24.5ZM72.012-413.9a3.221,3.221,0,0,1-3.218,3.218H6.206A3.221,3.221,0,0,1,2.988-413.9v-37.7a3.221,3.221,0,0,1,3.218-3.218H68.794a3.221,3.221,0,0,1,3.218,3.218v37.7Z" transform="translate(0 476.621)"/><path class="a" d="M167.252-323.729h-9.31v-9.31a1.494,1.494,0,0,0-1.494-1.494H144.89a1.494,1.494,0,0,0-1.494,1.494v9.31h-9.311a1.494,1.494,0,0,0-1.494,1.494v11.558a1.494,1.494,0,0,0,1.494,1.494h9.31v9.311a1.494,1.494,0,0,0,1.494,1.494h11.558a1.494,1.494,0,0,0,1.494-1.494v-9.31h9.311a1.494,1.494,0,0,0,1.494-1.494v-11.558A1.494,1.494,0,0,0,167.252-323.729Zm-1.494,11.558h-9.31a1.494,1.494,0,0,0-1.494,1.494v9.31h-8.57v-9.31a1.494,1.494,0,0,0-1.494-1.494h-9.311v-8.57h9.31a1.494,1.494,0,0,0,1.494-1.494v-9.311h8.57v9.31a1.494,1.494,0,0,0,1.494,1.494h9.311Z" transform="translate(-113.168 360.529)"/><path class="a" d="M89.466-349.833H79.008a1.494,1.494,0,0,0-1.494,1.494,1.494,1.494,0,0,0,1.494,1.494H89.466a1.494,1.494,0,0,0,1.494-1.494A1.494,1.494,0,0,0,89.466-349.833Z" transform="translate(-66.159 373.588)"/><path class="a" d="M38.958-349.833h-.747a1.494,1.494,0,0,0-1.494,1.494,1.494,1.494,0,0,0,1.494,1.494h.747a1.494,1.494,0,0,0,1.494-1.494A1.494,1.494,0,0,0,38.958-349.833Z" transform="translate(-31.339 373.588)"/></g></g></g></svg>