<svg xmlns="http://www.w3.org/2000/svg" xmlns:xlink="http://www.w3.org/1999/xlink" viewBox="-1730 1123 166.454 144.153"><defs><style>.a{fill:#fff;}.b{fill:#f26209;fill-rule:evenodd;}.c{clip-path:url(#a);}</style><clipPath id="a"><rect class="a" width="75" height="75"/></clipPath></defs><g transform="translate(-1938 -757)"><path class="b" d="M304.846-883.374,263.233-811.3H180.006l-41.614-72.076,41.614-72.077h83.227Z" transform="translate(69.608 2835.451)"/><g transform="translate(254 1915)"><g class="c"><path class="a" d="M158.718-314a1.465,1.465,0,0,0-1.465,1.465v18.457a1.465,1.465,0,0,0,1.465,1.465,1.465,1.465,0,0,0,1.465-1.465v-18.457A1.465,1.465,0,0,0,158.718-314Z" transform="translate(-134.218 343.004)"/><path class="a" d="M238.718-314a1.465,1.465,0,0,0-1.465,1.465v18.457a1.465,1.465,0,0,0,1.465,1.465,1.465,1.465,0,0,0,1.465-1.465v-18.457A1.465,1.465,0,0,0,238.718-314Z" transform="translate(-202.499 343.004)"/><path class="a" d="M318.718-314a1.465,1.465,0,0,0-1.465,1.465v18.457a1.465,1.465,0,0,0,1.465,1.465,1.465,1.465,0,0,0,1.465-1.465v-18.457A1.465,1.465,0,0,0,318.718-314Z" transform="translate(-270.78 343.004)"/><path class="a" d="M398.718-314a1.465,1.465,0,0,0-1.465,1.465v18.457a1.465,1.465,0,0,0,1.465,1.465,1.465,1.465,0,0,0,1.465-1.465v-18.457A1.465,1.465,0,0,0,398.718-314Z" transform="translate(-339.062 343.004)"/><path class="a" d="M69.117-456.348,74.977-488.3a1.465,1.465,0,0,0-.315-1.2,1.465,1.465,0,0,0-1.125-.527H67.091v-12.6a1.465,1.465,0,0,0-1.465-1.465H38.966v-6.445A1.465,1.465,0,0,0,37.5-512H22.267a1.465,1.465,0,0,0-1.465,1.465v20.506H13.028L10.82-502.874a1.465,1.465,0,0,0-1.444-1.217H1.466A1.465,1.465,0,0,0,0-502.626v5.859A1.465,1.465,0,0,0,1.466-495.3H9.149l6.673,38.815v1.907a8.216,8.216,0,0,0,7.377,8.162,6.115,6.115,0,0,0-.941,3.264A6.159,6.159,0,0,0,28.41-437a6.159,6.159,0,0,0,6.152-6.152,6.114,6.114,0,0,0-.914-3.223H51.315a6.114,6.114,0,0,0-.914,3.223A6.159,6.159,0,0,0,56.553-437a6.159,6.159,0,0,0,6.152-6.152,6.114,6.114,0,0,0-.914-3.223h5.886a1.465,1.465,0,0,0,1.465-1.465,1.465,1.465,0,0,0-1.465-1.465H24.025a5.28,5.28,0,0,1-5.274-5.274v-.567H67.677A1.465,1.465,0,0,0,69.117-456.348ZM2.931-498.231v-2.93H8.141l.5,2.93Zm53.623,51.855a3.226,3.226,0,0,1,3.223,3.223,3.226,3.226,0,0,1-3.223,3.223,3.226,3.226,0,0,1-3.223-3.223A3.226,3.226,0,0,1,56.553-446.376Zm-28.144,0a3.226,3.226,0,0,1,3.223,3.223,3.226,3.226,0,0,1-3.223,3.223,3.226,3.226,0,0,1-3.223-3.223A3.226,3.226,0,0,1,28.41-446.376ZM38.984-495.3H51.712a1.465,1.465,0,0,0,1.465-1.465,1.465,1.465,0,0,0-1.465-1.465H38.984v-2.93H64.161v11.131H38.984Zm-15.253-13.77h12.3v19.041h-12.3Zm42.725,50.994H18.521L13.531-487.1H71.778Z" transform="translate(-0.001 512.001)"/><path class="a" d="M396.61-417.572a1.481,1.481,0,0,0-1.036-.429,1.481,1.481,0,0,0-1.037.429,1.475,1.475,0,0,0-.428,1.036,1.474,1.474,0,0,0,.428,1.035,1.482,1.482,0,0,0,1.037.429,1.481,1.481,0,0,0,1.036-.429,1.475,1.475,0,0,0,.429-1.035A1.475,1.475,0,0,0,396.61-417.572Z" transform="translate(-336.379 431.77)"/></g></g></g></svg>