<svg xmlns="http://www.w3.org/2000/svg" xmlns:xlink="http://www.w3.org/1999/xlink" viewBox="-1590.227 1690.202 166.454 144.154"><defs><style>.a,.b{fill:#fff;}.a{clip-rule:evenodd;}.c{fill:#930cf2;fill-rule:evenodd;}.d{clip-path:url(#a);}.e{clip-path:url(#b);}</style><clipPath id="a"><path class="a" d="M776.62-1390.309h75v-75h-75Z" transform="translate(-776.62 1465.309)"/></clipPath><clipPath id="b"><rect class="b" width="75" height="75"/></clipPath></defs><g transform="translate(-1938 -757)"><path class="c" d="M444.227-324.172,402.613-252.1H319.386l-41.613-72.077,41.613-72.077h83.227Z" transform="translate(70 2843.451)"/><g class="d" transform="translate(394.104 2481.971)"><g transform="translate(0 0)"><g class="e"><path class="b" d="M154.146-273.48h-21.2a4.6,4.6,0,0,0-4.6,4.6,4.6,4.6,0,0,0,4.6,4.6h21.2a4.6,4.6,0,0,0,4.6-4.6A4.6,4.6,0,0,0,154.146-273.48Zm0,6.267h-21.2a1.671,1.671,0,0,1-1.669-1.669,1.671,1.671,0,0,1,1.669-1.669h21.2a1.671,1.671,0,0,1,1.669,1.669A1.67,1.67,0,0,1,154.146-267.213Z" transform="translate(-109.546 308.42)"/><path class="b" d="M70.218-444.066H66.9a1.465,1.465,0,0,0-1.465,1.465v.927L61-438.37a1.465,1.465,0,0,0-1.4-1.031H55.465v-3.2A1.465,1.465,0,0,0,54-444.066H33.531v-9.6h4.858a7.725,7.725,0,0,0,6.211,3.133H60.267A7.74,7.74,0,0,0,68-458.268,7.741,7.741,0,0,0,60.267-466H44.6a7.725,7.725,0,0,0-6.211,3.133H28.933a4.6,4.6,0,0,0-4.6,4.6v1.669H23.106a5.045,5.045,0,0,0-5.039,5.039v7.495H14a1.465,1.465,0,0,0-1.465,1.465v1.669H8.956A4.605,4.605,0,0,0,4.6-444.066a4.6,4.6,0,0,0-4.6,4.6v6.267a4.6,4.6,0,0,0,4.6,4.6,4.579,4.579,0,0,0,1.669-.315V-411.8a7.333,7.333,0,0,0,7.324,7.324H53.738a7.333,7.333,0,0,0,7.324-7.324v-9.914l4.375,3.256v.927a1.465,1.465,0,0,0,1.465,1.465h3.317A4.787,4.787,0,0,0,75-420.85v-18.435A4.787,4.787,0,0,0,70.218-444.066Zm-29.805-16.55c.024-.038.047-.078.068-.118a4.8,4.8,0,0,1,4.119-2.337H60.268a4.807,4.807,0,0,1,4.8,4.8,4.807,4.807,0,0,1-4.8,4.8H44.6a4.8,4.8,0,0,1-4.119-2.336c-.021-.041-.045-.082-.069-.12a4.77,4.77,0,0,1-.614-2.345A4.772,4.772,0,0,1,40.413-460.616ZM6.267-433.2A1.671,1.671,0,0,1,4.6-431.532,1.67,1.67,0,0,1,2.93-433.2v-6.267A1.671,1.671,0,0,1,4.6-441.136a1.671,1.671,0,0,1,1.669,1.669Zm22.665-26.737h8.119a7.728,7.728,0,0,0-.183,1.669,7.717,7.717,0,0,0,.183,1.669H27.264v-1.669h0A1.671,1.671,0,0,1,28.933-459.937ZM21-451.56a2.112,2.112,0,0,1,2.11-2.11H30.6v9.6H21Zm-5.533,10.424H52.535v22.474l-5.235,5.4H23.971l-4.177-5.671a1.465,1.465,0,0,0-1.179-.6H15.464ZM9.2-438h3.337v3.337H9.2Zm48.935,26.2a4.4,4.4,0,0,1-4.395,4.395H13.591A4.4,4.4,0,0,1,9.2-411.8v-19.935h3.337v13.668A1.465,1.465,0,0,0,14-416.6h3.875l4.177,5.671a1.465,1.465,0,0,0,1.179.6H47.92a1.465,1.465,0,0,0,1.051-.445l6.081-6.267a1.465,1.465,0,0,0,.414-1.02v-2.666h2.667Zm0-24.67v12.808H55.465v-12.808Zm7.3,14.36-4.375-3.256v-9.4l4.375-3.256Zm6.633,1.262A1.854,1.854,0,0,1,70.218-419H68.366v-22.139h1.852a1.854,1.854,0,0,1,1.852,1.852Z" transform="translate(0 472.738)"/><path class="b" d="M376.4-423.218h-4.546a1.465,1.465,0,0,0-1.465,1.465,1.465,1.465,0,0,0,1.465,1.465H376.4a1.465,1.465,0,0,0,1.465-1.465A1.465,1.465,0,0,0,376.4-423.218Z" transform="translate(-316.136 436.223)"/><path class="b" d="M342.9-423.218h-.04a1.465,1.465,0,0,0-1.465,1.465,1.465,1.465,0,0,0,1.465,1.465h.04a1.465,1.465,0,0,0,1.465-1.465A1.465,1.465,0,0,0,342.9-423.218Z" transform="translate(-291.384 436.223)"/><path class="b" d="M189.616-190.7h-.04a1.465,1.465,0,0,0-1.465,1.465,1.465,1.465,0,0,0,1.465,1.465h.04a1.465,1.465,0,0,0,1.465-1.465A1.465,1.465,0,0,0,189.616-190.7Z" transform="translate(-160.557 237.763)"/><path class="b" d="M134.359-190.7h-4.546a1.465,1.465,0,0,0-1.465,1.465,1.465,1.465,0,0,0,1.465,1.465h4.546a1.465,1.465,0,0,0,1.465-1.465A1.465,1.465,0,0,0,134.359-190.7Z" transform="translate(-109.547 237.763)"/></g></g></g></g></svg>