<?xml version="1.0" encoding="iso-8859-1"?>
<!-- Generator: Adobe Illustrator 19.0.0, SVG Export Plug-In . SVG Version: 6.00 Build 0)  -->
<svg version="1.1" id="Capa_1" xmlns="http://www.w3.org/2000/svg" xmlns:xlink="http://www.w3.org/1999/xlink" x="0px" y="0px"
	 viewBox="0 0 512.001 512.001" style="enable-background:new 0 0 512.001 512.001;" xml:space="preserve" fill="#404040">
<g>
	<g>
		<path d="M304.47,238.521H159.738c-17.309,0-31.391,14.083-31.391,31.393c0.001,17.308,14.083,31.39,31.391,31.39H304.47
			c17.309,0,31.391-14.083,31.391-31.392C335.861,252.603,321.779,238.521,304.47,238.521z M304.47,281.305H159.738
			c-6.281,0-11.391-5.11-11.391-11.392c0.001-6.283,5.11-11.392,11.391-11.392H304.47c6.281,0,11.391,5.11,11.391,11.393
			C315.861,276.195,310.752,281.305,304.47,281.305z"/>
	</g>
</g>
<g>
	<g>
		<path d="M479.357,195.738h-22.643c-5.522,0-10,4.478-10,10v6.326L416.4,234.623c-1.263-4.076-5.061-7.037-9.553-7.037h-28.204
			V205.74c0-5.523-4.478-10-10-10h-139.74v-65.566h33.163c9.626,12.969,25.048,21.391,42.403,21.391h106.958
			c29.104,0,52.781-23.678,52.781-52.781c0-29.104-23.678-52.783-52.781-52.783H304.47c-17.355,0-32.776,8.422-42.402,21.391
			h-64.555c-17.31,0-31.392,14.083-31.392,31.393v11.391h-8.381c-18.969,0-34.401,15.433-34.401,34.402v51.164H95.565
			c-5.523,0-10,4.477-10,10v11.391H61.141c-4.185-12.42-15.935-21.393-29.749-21.393C14.082,195.738,0,209.82,0,227.128v42.783
			c0,17.309,14.082,31.391,31.392,31.391c4.018,0,7.858-0.768,11.393-2.148V416c0,27.57,22.43,50,50,50h274.064
			c27.57,0,50-22.43,50-50v-67.682l29.867,22.227v6.326c0,5.522,4.478,10,10,10h22.643c17.999,0,32.642-14.643,32.642-32.643V228.38
			C511.999,210.381,497.356,195.738,479.357,195.738z M275.886,82.759c0.167-0.262,0.322-0.53,0.465-0.808
			c5.736-9.547,16.192-15.952,28.119-15.952h106.958c18.076,0,32.781,14.706,32.781,32.783c0,18.075-14.705,32.781-32.781,32.781
			H304.47c-11.926,0-22.381-6.402-28.117-15.949c-0.145-0.282-0.304-0.557-0.474-0.822c-2.664-4.738-4.191-10.197-4.191-16.01
			C271.688,92.965,273.218,87.501,275.886,82.759z M42.783,269.912c0,6.281-5.11,11.391-11.392,11.391
			c-6.281,0-11.392-5.109-11.392-11.391v-42.783c0-6.281,5.11-11.391,11.392-11.391c6.281,0,11.392,5.109,11.392,11.391V269.912z
			 M197.513,87.39h55.427c-0.811,3.672-1.252,7.48-1.252,11.393c0,3.911,0.44,7.72,1.252,11.391h-66.818V98.783h-0.001
			C186.121,92.501,191.231,87.39,197.513,87.39z M143.339,144.576c0-7.941,6.46-14.402,14.401-14.402h51.163v65.566h-65.564V144.576
			z M105.565,215.74h253.078v153.425L322.903,406H163.639l-28.513-38.712c-1.885-2.559-4.874-4.069-8.052-4.069h-21.509V215.74z
			 M62.784,237.13h22.781v22.781H62.784V237.13z M396.848,416c0,16.542-13.458,30-30,30H92.784c-16.542,0-30-13.458-30-30V279.912
			h22.781v93.307c0,5.523,4.477,10,10,10h26.455l28.513,38.712c1.885,2.559,4.874,4.069,8.052,4.069h168.549
			c2.704,0,5.294-1.096,7.177-3.036l41.51-42.781c1.811-1.866,2.823-4.364,2.823-6.964v-18.197h18.204V416z M396.848,247.585v87.436
			h-18.204v-87.436L396.848,247.585L396.848,247.585z M446.715,345.614l-29.867-22.226V259.22l29.867-22.227V345.614z
			 M491.999,354.228c0,6.971-5.671,12.643-12.642,12.643h-12.643V215.738h12.643c6.971,0,12.642,5.672,12.642,12.643V354.228z"/>
	</g>
</g>
<g>
	<g>
		<path d="M411.428,88.783h-31.035c-5.523,0-10,4.478-10,10c0,5.522,4.477,10,10,10h31.035c5.522,0,10-4.478,10-10
			C421.428,93.261,416.95,88.783,411.428,88.783z"/>
	</g>
</g>
<g>
	<g>
		<path d="M351.663,88.783h-0.27c-5.523,0-10,4.478-10,10c0,5.522,4.477,10,10,10h0.27c5.522,0,10-4.478,10-10
			C361.663,93.261,357.185,88.783,351.663,88.783z"/>
	</g>
</g>
<g>
	<g>
		<path d="M198.382,321.304h-0.27c-5.523,0-10,4.478-10,10c0,5.522,4.477,10,10,10h0.27c5.523,0,10-4.478,10-10
			C208.382,325.782,203.905,321.304,198.382,321.304z"/>
	</g>
</g>
<g>
	<g>
		<path d="M169.382,321.304h-31.034c-5.523,0-10,4.478-10,10c0,5.523,4.477,10,10,10h31.034c5.523,0,10-4.478,10-10
			C179.382,325.782,174.905,321.304,169.382,321.304z"/>
	</g>
</g>
<g>
</g>
<g>
</g>
<g>
</g>
<g>
</g>
<g>
</g>
<g>
</g>
<g>
</g>
<g>
</g>
<g>
</g>
<g>
</g>
<g>
</g>
<g>
</g>
<g>
</g>
<g>
</g>
<g>
</g>
</svg>
