<?xml version="1.0" encoding="iso-8859-1"?>
<!-- Generator: Adobe Illustrator 19.0.0, SVG Export Plug-In . SVG Version: 6.00 Build 0)  -->
<svg version="1.1" id="Capa_1" xmlns="http://www.w3.org/2000/svg" xmlns:xlink="http://www.w3.org/1999/xlink" x="0px" y="0px"
	 viewBox="0 0 512 512" style="enable-background:new 0 0 512 512;" xml:space="preserve">
<g>
	<g>
		<path d="M437.843,319.624h-21.029h-7.67c-12.986-9.357-20.943-25.365-20.943-42.531c0-17.233,8.021-33.293,21.097-42.635h7.516
			c5.533,0,10.02-4.486,10.02-10.02s-4.487-10.02-10.02-10.02h-20.585c7.022-8.848,11.223-19.977,11.223-32.063
			c0-12.086-4.202-23.214-11.223-32.063h36.617c5.533,0,10.02-4.486,10.02-10.02s-4.487-10.02-10.02-10.02h-5.01V66.129h5.01
			c5.533,0,10.02-4.486,10.02-10.02c0-5.534-4.487-10.02-10.02-10.02H103.875c-20.261,0-36.744,16.293-36.744,36.319v31.565
			c0,20.027,16.483,36.32,36.744,36.32h2.333h3.006v64.125h-2.585h-0.421c-0.139,0-0.276,0.015-0.414,0.021
			c-34.612,0.444-62.633,28.347-62.633,62.602c0,16.433,6.458,31.399,16.99,42.582H10.02c-5.533,0-10.02,4.486-10.02,10.02
			c0,5.534,4.487,10.02,10.02,10.02h9.858c16.76,11.478,27.079,31.719,27.079,53.446c0,21.301-9.917,41.173-26.099,52.761H10.02
			c-5.533,0-10.02,4.486-10.02,10.02c0,5.534,4.487,10.02,10.02,10.02h427.824c40.891,0,74.157-32.811,74.157-73.144
			C512,352.435,478.734,319.624,437.843,319.624z M247.483,81.974c0-7.652,5.43-14.073,12.726-15.845h147.587v22.043h-51.1
			c-5.533,0-10.02,4.486-10.02,10.02s4.487,10.02,10.02,10.02h51.1v22.043h-53.124H266.61c-0.756-0.182-1.543-0.29-2.356-0.29
			c-9.248,0-16.771-7.333-16.771-16.347V81.974z M160.313,172.337h-31.061v-22.043h225.42c18.053,0,32.74,14.383,32.74,32.063
			c0,17.68-14.687,32.063-32.74,32.063h-43.064H129.252v-22.043h31.061c5.534,0,10.02-4.486,10.02-10.02
			C170.333,176.822,165.847,172.337,160.313,172.337z M196.384,81.974c0-7.652,5.43-14.073,12.726-15.845h22.014
			c-2.356,4.792-3.679,10.169-3.679,15.845v31.644c0,5.993,1.483,11.647,4.09,16.636H215.51c-0.757-0.182-1.543-0.29-2.356-0.29
			c-9.247,0-16.771-7.333-16.771-16.347V81.974z M106.207,130.254h-2.333c-9.211,0-16.705-7.303-16.705-16.281V82.409
			c0-8.977,7.494-16.28,16.705-16.28h76.149c-2.356,4.792-3.679,10.169-3.679,15.845v31.644c0,5.993,1.483,11.647,4.09,16.636
			H106.207z M106.628,234.458h204.98h43.064c0.004,0,0.009,0,0.013,0c0.002,0,0.004,0,0.006,0h26.848
			c-8.526,12.123-13.378,27.06-13.378,42.635c0,15.53,4.826,30.427,13.307,42.531H192.376h-1.014h-84.734
			c-23.946,0-43.429-19.102-43.429-42.582C63.199,253.561,82.682,234.458,106.628,234.458z M191.362,445.871H49.287
			c11.248-14.67,17.709-33.288,17.709-52.761c0-3.829-0.255-7.624-0.742-11.364h78.028v39.639c0,3.385,1.708,6.54,4.542,8.39
			c2.835,1.851,6.411,2.144,9.509,0.783l17.512-7.697l17.509,7.696c1.291,0.567,2.663,0.848,4.031,0.848
			c1.917,0,3.824-0.55,5.478-1.629c2.835-1.85,4.543-5.006,4.543-8.39v-49.659c0-5.534-4.486-10.02-10.02-10.02h-43.084H61.197
			c-3.056-7.983-7.259-15.425-12.445-22.043h57.877h84.734c29.84,0,54.118,23.822,54.118,53.105
			C245.479,422.049,221.202,445.871,191.362,445.871z M164.321,406.037v-24.291h23.045v24.29l-7.49-3.292
			c-2.569-1.13-5.496-1.129-8.064,0L164.321,406.037z M437.843,445.871H242.277c14.296-13.341,23.241-32.206,23.241-53.105
			c0-20.898-8.945-39.762-23.241-53.103h162.276c0.6,0.111,1.204,0.186,1.807,0.186c0.614,0,1.222-0.075,1.824-0.186h8.63h21.029
			c29.841,0,54.118,23.822,54.118,53.105C491.961,422.049,467.684,445.871,437.843,445.871z"/>
	</g>
</g>
<g>
	<g>
		<path d="M274.536,277.542h-79.155c-5.533,0-10.02,4.486-10.02,10.02s4.487,10.02,10.02,10.02h79.155
			c5.533,0,10.02-4.486,10.02-10.02S280.069,277.542,274.536,277.542z"/>
	</g>
</g>
<g>
	<g>
		<path d="M425.832,382.748H306.599c-5.533,0-10.02,4.486-10.02,10.02c0,5.534,4.487,10.02,10.02,10.02h119.233
			c5.533,0,10.02-4.486,10.02-10.02C435.851,387.233,431.365,382.748,425.832,382.748z"/>
	</g>
</g>
<g>
	<g>
		<path d="M189.37,172.337h-1.002c-5.533,0-10.02,4.486-10.02,10.02c0,5.534,4.487,10.02,10.02,10.02h1.002
			c5.534,0,10.02-4.486,10.02-10.02C199.389,176.822,194.904,172.337,189.37,172.337z"/>
	</g>
</g>
<g>
</g>
<g>
</g>
<g>
</g>
<g>
</g>
<g>
</g>
<g>
</g>
<g>
</g>
<g>
</g>
<g>
</g>
<g>
</g>
<g>
</g>
<g>
</g>
<g>
</g>
<g>
</g>
<g>
</g>
</svg>
