<?xml version="1.0" encoding="iso-8859-1"?>
<!-- Generator: Adobe Illustrator 19.0.0, SVG Export Plug-In . SVG Version: 6.00 Build 0)  -->
<svg version="1.1" id="Layer_1" xmlns="http://www.w3.org/2000/svg" xmlns:xlink="http://www.w3.org/1999/xlink" x="0px" y="0px"
	 viewBox="0 0 512 512" style="enable-background:new 0 0 512 512;" xml:space="preserve">
<g>
	<g>
		<path d="M480.604,84.62H31.396C14.085,84.62,0,98.703,0,116.015v279.968c0,17.311,14.085,31.396,31.396,31.396h449.208
			c17.311,0,31.396-14.085,31.396-31.396V116.015C512,98.703,497.915,84.619,480.604,84.62z M491.602,395.983
			c0,6.064-4.933,10.998-10.998,10.998H31.396c-6.064,0-10.998-4.933-10.998-10.998V116.014c0-6.063,4.933-10.997,10.998-10.997
			h449.208c6.064,0,10.998,4.933,10.998,10.997V395.983z"/>
	</g>
</g>
<g>
	<g>
		<path d="M440.902,128.713H71.098c-10.522,0-19.082,8.56-19.082,19.082v54.036c0,10.523,8.56,19.083,19.082,19.083h369.805
			c10.522,0,19.082-8.56,19.082-19.083v-54.036C459.984,137.274,451.424,128.713,440.902,128.713z M439.586,200.516H72.414v-51.404
			h367.171V200.516z"/>
	</g>
</g>
<g>
	<g>
		<path d="M110.442,235.531H64.851c-7.076,0-12.835,5.758-12.835,12.835v42.895c0,7.076,5.758,12.835,12.835,12.835h45.591
			c7.077,0,12.835-5.758,12.835-12.835v-42.895C123.277,241.289,117.518,235.531,110.442,235.531z M102.878,283.696H72.414v-27.767
			h30.464V283.696z"/>
	</g>
</g>
<g>
	<g>
		<path d="M110.442,316.556H64.851c-7.076,0-12.835,5.758-12.835,12.835v42.896c0,7.077,5.758,12.835,12.835,12.835h45.591
			c7.077,0,12.835-5.758,12.835-12.835v-42.896C123.277,322.315,117.518,316.556,110.442,316.556z M102.878,364.723H72.414v-27.768
			h30.464V364.723z"/>
	</g>
</g>
<g>
	<g>
		<path d="M194.874,235.531h-45.591c-7.076,0-12.835,5.758-12.835,12.835v42.895c0,7.076,5.758,12.835,12.835,12.835h45.591
			c7.077,0,12.835-5.758,12.835-12.835v-42.895C207.709,241.289,201.95,235.531,194.874,235.531z M187.31,283.696h-30.464v-27.767
			h30.464V283.696z"/>
	</g>
</g>
<g>
	<g>
		<path d="M194.874,316.556h-45.591c-7.076,0-12.835,5.758-12.835,12.835v42.896c0,7.076,5.758,12.835,12.835,12.835h45.591
			c7.077,0,12.835-5.758,12.835-12.835v-42.896C207.709,322.315,201.95,316.556,194.874,316.556z M187.31,364.723h-30.464v-27.768
			h30.464V364.723z"/>
	</g>
</g>
<g>
	<g>
		<path d="M279.306,235.531h-45.591c-7.076,0-12.835,5.758-12.835,12.835v42.895c0,7.076,5.758,12.835,12.835,12.835h45.592
			c7.076,0,12.835-5.758,12.834-12.835v-42.895C292.141,241.289,286.382,235.531,279.306,235.531z M271.742,283.696h-30.464v-27.767
			h30.464V283.696z"/>
	</g>
</g>
<g>
	<g>
		<path d="M279.306,316.556h-45.591c-7.076,0-12.835,5.758-12.835,12.835v42.896c0,7.076,5.758,12.835,12.835,12.835h45.592
			c7.076,0,12.835-5.758,12.834-12.835v-42.896C292.141,322.315,286.382,316.556,279.306,316.556z M271.742,364.723h-30.464v-27.768
			h30.464V364.723z"/>
	</g>
</g>
<g>
	<g>
		<path d="M364.757,235.531h-45.591c-7.076,0-12.835,5.758-12.835,12.835v42.895c0,7.076,5.758,12.835,12.835,12.835h45.591
			c7.076,0,12.835-5.758,12.835-12.835v-42.895C377.592,241.289,371.833,235.531,364.757,235.531z M357.193,283.696h-30.464v-27.767
			h30.464V283.696z"/>
	</g>
</g>
<g>
	<g>
		<path d="M364.757,316.556h-45.591c-7.076,0-12.835,5.758-12.835,12.835v42.896c0,7.076,5.758,12.835,12.835,12.835h45.591
			c7.076,0,12.835-5.758,12.835-12.835v-42.896C377.592,322.315,371.833,316.556,364.757,316.556z M357.193,364.723h-30.464v-27.768
			h30.464V364.723z"/>
	</g>
</g>
<g>
	<g>
		<path d="M449.189,235.531h-45.591c-7.076,0-12.835,5.758-12.835,12.835v42.895c0,7.076,5.759,12.835,12.835,12.835h45.591
			c7.076,0,12.835-5.758,12.835-12.835v-42.895C462.024,241.289,456.265,235.531,449.189,235.531z M441.625,283.696h-30.464v-27.767
			h30.464V283.696z"/>
	</g>
</g>
<g>
	<g>
		<path d="M449.189,316.556h-45.591c-7.076,0-12.835,5.758-12.835,12.835v42.896c0,7.076,5.759,12.835,12.835,12.835h45.591
			c7.076,0,12.835-5.758,12.835-12.835v-42.896C462.024,322.315,456.265,316.556,449.189,316.556z M441.625,364.723h-30.464v-27.768
			h30.464V364.723z"/>
	</g>
</g>
<g>
	<g>
		<path d="M410.008,164.411H272.319c-5.632,0-10.199,4.567-10.199,10.199s4.567,10.199,10.199,10.199h137.689
			c5.632,0,10.199-4.567,10.199-10.199S415.64,164.411,410.008,164.411z"/>
	</g>
</g>
<g>
	<g>
		<path d="M239.681,164.411h-4.08c-5.632,0-10.199,4.567-10.199,10.199s4.567,10.199,10.199,10.199h4.08
			c5.632,0,10.199-4.567,10.199-10.199S245.313,164.411,239.681,164.411z"/>
	</g>
</g>
<g>
</g>
<g>
</g>
<g>
</g>
<g>
</g>
<g>
</g>
<g>
</g>
<g>
</g>
<g>
</g>
<g>
</g>
<g>
</g>
<g>
</g>
<g>
</g>
<g>
</g>
<g>
</g>
<g>
</g>
</svg>
