<?xml version="1.0" encoding="iso-8859-1"?>
<!-- Generator: Adobe Illustrator 19.0.0, SVG Export Plug-In . SVG Version: 6.00 Build 0)  -->
<svg version="1.1" id="Capa_1" xmlns="http://www.w3.org/2000/svg" xmlns:xlink="http://www.w3.org/1999/xlink" x="0px" y="0px"
	 viewBox="0 0 512.004 512.004" style="enable-background:new 0 0 512.004 512.004;" xml:space="preserve">
<g>
	<g>
		<g>
			<path d="M485.764,0.005c-0.072-0.001-0.144-0.001-0.215-0.002H26.882C12.214-0.174,0.181,11.573,0.004,26.241
				c-0.001,0.072-0.001,0.144-0.002,0.215v320c-0.177,14.668,11.57,26.701,26.238,26.878c0.072,0.001,0.144,0.001,0.215,0.002
				h16.213v-21.333H26.455c-2.828,0-5.12-2.292-5.12-5.12v-320c-0.236-2.818,1.858-5.293,4.676-5.529
				c0.148-0.012,0.296-0.018,0.444-0.018h458.667c2.828,0,5.12,2.292,5.12,5.12v320c0,2.828-2.292,5.12-5.12,5.12h-47.787v21.333
				h48.213c14.421-0.055,26.164-11.608,26.453-26.027v-320C512.179,12.215,500.432,0.182,485.764,0.005z"/>
			<rect x="202.669" y="352.003" width="85.333" height="21.333"/>
			<path d="M149.335,85.336H96.002c-17.673,0-32,14.327-32,32v362.667c0,17.673,14.327,32,32,32h53.333c17.673,0,32-14.327,32-32
				V117.336C181.335,99.663,167.008,85.336,149.335,85.336z M160.002,480.003c0,5.891-4.776,10.667-10.667,10.667H96.002
				c-5.891,0-10.667-4.776-10.667-10.667v-10.667h32v-21.333h-32v-64h32V362.67h-32v-53.333h32v-21.333h-32v-64h32V202.67h-32
				v-53.333h32v-21.333h-32v-10.667c0-5.891,4.776-10.667,10.667-10.667h53.333c5.891,0,10.667,4.776,10.667,10.667V480.003z"/>
			<path d="M327.362,279.47c-1.099-1.046-2.408-1.846-3.84-2.347l-1.387-0.747l-53.333-21.333
				c-5.469-2.189-11.677,0.47-13.867,5.939c-1.018,2.544-1.018,5.383,0,7.928l21.333,53.333c0.964,1.803,2.032,3.548,3.2,5.227
				l180.48,180.373c4.16,4.136,10.88,4.136,15.04,0l32.853-32.853c4.136-4.16,4.136-10.88,0-15.04L327.362,279.47z M290.029,299.203
				l-6.08-15.253l15.253,6.08L290.029,299.203z M302.082,320.003l17.92-17.92L458.669,440.75l-17.92,17.92L302.082,320.003z
				 M467.522,485.23l-11.733-11.627l17.707-17.707l11.627,11.627L467.522,485.23z"/>
			<path d="M469.335,53.336c0-5.891-4.776-10.667-10.667-10.667h-42.667v21.333h32v32h21.333V53.336z"/>
			<rect x="448.002" y="117.336" width="21.333" height="21.333"/>
		</g>
	</g>
</g>
<g>
</g>
<g>
</g>
<g>
</g>
<g>
</g>
<g>
</g>
<g>
</g>
<g>
</g>
<g>
</g>
<g>
</g>
<g>
</g>
<g>
</g>
<g>
</g>
<g>
</g>
<g>
</g>
<g>
</g>
</svg>
