<svg id="financas-icon" xmlns="http://www.w3.org/2000/svg" viewBox="0 0 424 356">
  <title>bars</title>
  <g id="round">
    <path d="M352.4,34c-32.4,0-58,26-58,58.4a57.8,57.8,0,0,0,58,58A58.5,58.5,0,0,0,410.8,92C410.8,59.6,384.8,34,352.4,34Zm0,103.6A45.6,45.6,0,0,1,306.8,92c0-25.2,20.8-45.2,45.6-45.2a45.4,45.4,0,1,1,0,90.8Z" transform="translate(0 -34)"/>
  </g>
  <g id="cifrao">
    <path d="M370.8,101.2a10.5,10.5,0,0,0-1.2-3.2,10,10,0,0,0-1.6-2.8c-.8-.8-1.2-1.6-2-2.4a7.2,7.2,0,0,0-2.8-2,10,10,0,0,0-2.8-1.6c-1.2-.4-2-1.2-3.2-1.6L354,86.4a3,3,0,0,1-1.6-.8c-.4-.4-1.2-.4-1.6-.8s-1.2-.4-1.6-.8L348,82.8a2.1,2.1,0,0,1-.8-1.6,2.4,2.4,0,0,1-.4-1.6v-2c0-.4.4-1.2.4-1.6s.4-1.2.8-1.6l1.2-1.2a3.1,3.1,0,0,1,2-.8,3.6,3.6,0,0,1,2-.4h2.4a3.6,3.6,0,0,1,2,.4,17.3,17.3,0,0,1,2,.4l1.6.4c.8,0,1.2.4,1.6.4l2,.8.4-2.4.8-6.4V64l-1.6-.4-1.6-.4c-.4,0-.8-.4-1.6-.4a17.3,17.3,0,0,0-2-.4c-.8,0-1.2-.4-2-.4h-.4V54.4h-9.6v8h-.4a14.2,14.2,0,0,0-3.6,1.6,7.2,7.2,0,0,0-2.8,2,17.4,17.4,0,0,0-2.4,2.8,8,8,0,0,0-1.6,3.2l-1.2,3.6a13.6,13.6,0,0,0-.4,4,8.8,8.8,0,0,0,.4,3.2,10.5,10.5,0,0,0,1.2,3.2c.4.8,1.2,2,1.6,2.8s1.2,1.6,2,2.4a7.2,7.2,0,0,0,2.8,2,10,10,0,0,0,2.8,1.6,23.8,23.8,0,0,1,3.2,1.6l3.2,1.2a3,3,0,0,1,1.6.8c.4.4,1.2.4,1.6.8s.8.8,1.2.8l1.2,1.2c.4.4.4.8.8,1.6a17.3,17.3,0,0,1,.4,2v2a3,3,0,0,1-.8,1.6l-1.2,1.2a5.5,5.5,0,0,1-1.6,1.2c-.4.4-1.2.4-1.6.8a17.3,17.3,0,0,1-2,.4h-5.2a17.3,17.3,0,0,1-2-.4,5.7,5.7,0,0,1-2.4-.8c-.8-.4-1.6-.4-2.4-.8s-.8-.4-1.2-.4-.8-.4-1.2-.4l-2.4-1.2-.4,2.8-.8,7.2v1.2l1.2.4a5.3,5.3,0,0,1,3.6.4,7.4,7.4,0,0,0,2.8.8c.8.4,2,.4,3.2.8a8.8,8.8,0,0,0,3.2.4h.8v8H358v-8.4h.4A14.2,14.2,0,0,0,362,120a14,14,0,0,0,3.2-2,17.4,17.4,0,0,0,2.4-2.8,22.3,22.3,0,0,0,2-3.2l1.2-3.6a12.3,12.3,0,0,0,.4-4A8.8,8.8,0,0,0,370.8,101.2Z" transform="translate(0 -34)"/>
  </g>
  <g id="graphic">
    <path d="M324.4,158c-2-2.8-6.4-3.2-9.2-1.2l-64.8,51.6-83.6-34.8a6.4,6.4,0,0,0-6,.8l-89.6,64a6.4,6.4,0,0,0-1.6,8.8,5.8,5.8,0,0,0,5.2,2.8,6.5,6.5,0,0,0,3.6-1.2l86.8-62,84,34.8a7.2,7.2,0,0,0,6.4-.8l67.6-53.6C326,165.2,326.4,160.8,324.4,158Z" transform="translate(0 -34)"/>
  </g>
  <g id="bars">
    <path d="M418,377.2H388.4V192a6.3,6.3,0,0,0-6.4-6.4H323.2a6.3,6.3,0,0,0-6.4,6.4V377.2H295.2V256a6.3,6.3,0,0,0-6.4-6.4H229.6a6.3,6.3,0,0,0-6.4,6.4V377.2H201.6V246.4a6.3,6.3,0,0,0-6.4-6.4H136.4a6.3,6.3,0,0,0-6.4,6.4V377.2H108.4V284a6.3,6.3,0,0,0-6.4-6.4H42.8a6.3,6.3,0,0,0-6.4,6.4v93.2H6.4a6.4,6.4,0,0,0,0,12.8H417.6a6.3,6.3,0,0,0,6.4-6.4A5.8,5.8,0,0,0,418,377.2Zm-322.8,0h-46V290.4h46Zm93.6,0h-46V252.8h46Zm93.2,0H236V262.4h46Zm93.6,0h-46V198.4h46Z" transform="translate(0 -34)"/>
  </g>
</svg>
