<svg xmlns="http://www.w3.org/2000/svg" xmlns:xlink="http://www.w3.org/1999/xlink" viewBox="-1868 1850 166.454 144.153"><defs><style>.a,.b{fill:#fff;}.a{clip-rule:evenodd;}.c{fill:#0c28f2;fill-rule:evenodd;}.d{clip-path:url(#a);}.e{clip-path:url(#b);}</style><clipPath id="a"><path class="a" d="M0-1360.359H75v-75H0Z" transform="translate(0 1435.359)"/></clipPath><clipPath id="b"><rect class="b" width="75" height="75"/></clipPath></defs><g transform="translate(-1938 -757)"><path class="c" d="M166.454-164.294,124.84-92.217H41.613L0-164.294,41.613-236.37H124.84Z" transform="translate(70 2843.37)"/><g class="d" transform="translate(116 2642)"><g transform="translate(0 0)"><g class="e"><path class="b" d="M9.41-460.083A10.116,10.116,0,0,0,.039-449.318a8.944,8.944,0,0,0,9.628,8.2,7.77,7.77,0,0,0,7.015-8.5A6.594,6.594,0,0,0,9.3-455.443a5.414,5.414,0,0,0-4.611,6.287,4.559,4.559,0,0,0,1.8,2.76,3.912,3.912,0,0,0,3.447.588,3.359,3.359,0,0,0,1.912-1.533,2.807,2.807,0,0,0-.006-2.849,1.962,1.962,0,0,0-1.6-1.013,1.785,1.785,0,0,0-1.334.253,1.925,1.925,0,0,0-.782,1.505,1.387,1.387,0,0,0,.4.992,1.287,1.287,0,0,1-.415-.2,1.932,1.932,0,0,1-.709-1.083A2.676,2.676,0,0,1,9.738-452.7a3.848,3.848,0,0,1,4.189,3.432,5.02,5.02,0,0,1-4.553,5.385A6.191,6.191,0,0,1,2.8-449.57a7.362,7.362,0,0,1,6.826-7.745l.105-.006h55.53l.1.006A7.362,7.362,0,0,1,72.2-449.57a6.191,6.191,0,0,1-6.569,5.686,5.019,5.019,0,0,1-4.553-5.385,3.847,3.847,0,0,1,4.189-3.431,2.676,2.676,0,0,1,2.331,2.968,1.931,1.931,0,0,1-.709,1.083,1.291,1.291,0,0,1-.414.2,1.388,1.388,0,0,0,.4-.992,1.925,1.925,0,0,0-.781-1.505,1.784,1.784,0,0,0-1.334-.253,1.964,1.964,0,0,0-1.6,1.013,2.808,2.808,0,0,0,0,2.849,3.357,3.357,0,0,0,1.912,1.533,3.912,3.912,0,0,0,3.447-.588,4.559,4.559,0,0,0,1.8-2.76,5.414,5.414,0,0,0-4.61-6.287,6.594,6.594,0,0,0-7.379,5.824,7.77,7.77,0,0,0,7.015,8.5,8.944,8.944,0,0,0,9.627-8.2,10.116,10.116,0,0,0-9.371-10.765,2.389,2.389,0,0,0-.325-.013H9.735a2.522,2.522,0,0,0-.325.013ZM4.182-473.972a1.388,1.388,0,0,0-1.388,1.388v2.776a1.387,1.387,0,0,0,.407.982l5.553,5.553a1.388,1.388,0,0,0,.981.407h55.53a1.388,1.388,0,0,0,.981-.407l5.553-5.553a1.388,1.388,0,0,0,.407-.982v-2.776a1.388,1.388,0,0,0-1.388-1.388ZM5.57-471.2H69.429v.813l-4.74,4.74H10.31l-4.739-4.74Zm15.271,19.435a1.388,1.388,0,0,0-1.388,1.388V-411.5a1.388,1.388,0,0,0,1.389,1.388,1.387,1.387,0,0,0,.77-.233l7.9-5.265a1.389,1.389,0,0,0,.618-1.131l.432-25.277v-.023c0-.911,2.793-.937,2.776-.025v22.237a1.388,1.388,0,0,0,1.389,1.388,1.388,1.388,0,0,0,.77-.233l8.329-5.553a1.389,1.389,0,0,0,.618-1.155v-16.659c0-.927,2.776-.927,2.776,0v13.882a1.388,1.388,0,0,0,1.389,1.388,1.388,1.388,0,0,0,.62-.147L54.78-429.7a1.389,1.389,0,0,0,.767-1.241v-19.435a1.388,1.388,0,0,0-1.388-1.388H20.841Zm1.388,2.777H52.77V-431.8l-2.776,1.388v-11.636c0-4.628-8.329-4.628-8.329,0v15.916l-5.553,3.7v-19.594c.082-4.643-8.329-4.669-8.329-.024v-.024l-.42,24.549L22.23-414.1v-34.889Z" transform="translate(0 479.543)"/></g></g></g></g></svg>