<svg xmlns="http://www.w3.org/2000/svg" xmlns:xlink="http://www.w3.org/1999/xlink" viewBox="-1729.608 1292.4 166.454 144.153"><defs><style>.a{fill:#fff;}.b{fill:#e4f20c;fill-rule:evenodd;}.c{clip-path:url(#a);}</style><clipPath id="a"><rect class="a" width="75" height="75"/></clipPath></defs><g transform="translate(-1938 -757)"><path class="b" d="M304.846-721.974,263.233-649.9H180.006l-41.614-72.076,41.614-72.077h83.227Z" transform="translate(70 2843.451)"/><g transform="translate(223.475 2059.259)"><g transform="translate(30 25)"><g class="c"><path class="a" d="M359.879-466.721h-1c-.975-4.949-5.978-13.663-8.193-17.353a3.957,3.957,0,0,0,1.721-3.263,3.963,3.963,0,0,0-3.958-3.958,3.963,3.963,0,0,0-3.958,3.958,3.957,3.957,0,0,0,1.721,3.263c-2.215,3.691-7.218,12.4-8.193,17.353h-1a1.494,1.494,0,0,0-1.494,1.494A12.94,12.94,0,0,0,348.448-452.3a12.94,12.94,0,0,0,12.926-12.926A1.494,1.494,0,0,0,359.879-466.721Zm-11.432-21.587a.971.971,0,0,1,.97.97.971.971,0,0,1-.97.97.971.971,0,0,1-.97-.97A.971.971,0,0,1,348.447-488.308Zm0,6.313c2.528,4.267,6.432,11.376,7.393,15.273H341.062C341.968-470.37,345.481-477.013,348.445-481.994Zm0,26.7a9.953,9.953,0,0,1-9.826-8.444h19.651A9.953,9.953,0,0,1,348.447-455.29Z" transform="translate(-286.373 494.329)"/><path class="a" d="M50.8-409.821h-3.95v-3.794a1.494,1.494,0,0,0-1.494-1.494H41.56v-41.734a5.653,5.653,0,0,0,1.68-3.744l6.317-1.359a1.494,1.494,0,0,0,1.146-1.775,1.494,1.494,0,0,0-1.775-1.146L42.6-463.505a5.674,5.674,0,0,0-5.019-3.037,5.676,5.676,0,0,0-5.658,5.334l-15.8,3.4a3.955,3.955,0,0,0-3.2-1.628,3.963,3.963,0,0,0-3.958,3.958,3.956,3.956,0,0,0,1.721,3.263c-2.215,3.691-7.218,12.4-8.193,17.353h-1A1.494,1.494,0,0,0,0-433.367a12.94,12.94,0,0,0,12.926,12.926,12.94,12.94,0,0,0,12.926-12.926,1.494,1.494,0,0,0-1.494-1.494h-1c-.975-4.949-5.978-13.663-8.193-17.353a3.963,3.963,0,0,0,1.679-2.692l15.694-3.377a5.7,5.7,0,0,0,1.058,1.441v41.734H29.8a1.494,1.494,0,0,0-1.494,1.494v3.794h-3.95a1.494,1.494,0,0,0-1.494,1.494v5.6a1.494,1.494,0,0,0,1.494,1.494H50.8a1.494,1.494,0,0,0,1.494-1.494v-5.6A1.494,1.494,0,0,0,50.8-409.821ZM12.926-456.448a.972.972,0,0,1,.97.97.971.971,0,0,1-.97.97.971.971,0,0,1-.97-.97A.972.972,0,0,1,12.926-456.448Zm0,33.018A9.953,9.953,0,0,1,3.1-431.873H22.751A9.953,9.953,0,0,1,12.926-423.43Zm7.39-11.432H5.54c.907-3.649,4.42-10.292,7.384-15.273C15.451-445.867,19.356-438.759,20.316-434.861Zm17.262-28.693a2.684,2.684,0,0,1,2.681,2.681,2.684,2.684,0,0,1-2.681,2.681,2.684,2.684,0,0,1-2.681-2.681A2.684,2.684,0,0,1,37.578-463.554Zm.994,8.261v40.184H36.583v-40.184a5.665,5.665,0,0,0,.995.089A5.685,5.685,0,0,0,38.572-455.293ZM31.3-412.121H43.86v2.3H31.3Zm18.009,7.9H25.851v-2.611H49.3Z" transform="translate(0 473.201)"/><path class="a" d="M361.858-461.987a1.494,1.494,0,0,0-1.775-1.146l-1.089.234a1.494,1.494,0,0,0-1.146,1.775,1.5,1.5,0,0,0,1.459,1.18,1.5,1.5,0,0,0,.316-.034l1.089-.234A1.494,1.494,0,0,0,361.858-461.987Z" transform="translate(-305.4 470.321)"/></g></g></g></g></svg>