<svg xmlns="http://www.w3.org/2000/svg" xmlns:xlink="http://www.w3.org/1999/xlink" viewBox="-1590.227 1533.117 166.454 144.153"><defs><style>.a,.b{fill:#fff;}.a{clip-rule:evenodd;}.c{fill:#0cf2c9;fill-rule:evenodd;}.d{clip-path:url(#a);}.e{clip-path:url(#b);}</style><clipPath id="a"><path class="a" d="M3482.13-2069.479h75v-75h-75Z" transform="translate(-3482.13 2144.479)"/></clipPath><clipPath id="b"><rect class="b" width="75" height="75"/></clipPath></defs><g transform="translate(-1938 -757)"><path class="c" d="M444.227-481.257l-41.614,72.076H319.386l-41.613-72.076,41.613-72.077h83.227Z" transform="translate(70 2843.451)"/><g class="d" transform="translate(393.63 2324.713)"><g transform="translate(0 0)"><g class="e"><path class="b" d="M140.857-461.615a21.311,21.311,0,0,0-24.728,3.966,21.372,21.372,0,0,0-1.77,28.194,1.18,1.18,0,0,0,.934.456,1.176,1.176,0,0,0,.725-.249,1.182,1.182,0,0,0,.207-1.659,19,19,0,0,1,1.576-25.071,18.952,18.952,0,0,1,21.991-3.528,1.182,1.182,0,0,0,1.588-.522A1.182,1.182,0,0,0,140.857-461.615Z" transform="translate(-93.783 470.96)"/><path class="b" d="M195.728-387.543a1.182,1.182,0,0,0-1.588-.522,1.182,1.182,0,0,0-.522,1.588,18.953,18.953,0,0,1-3.53,21.987,19.005,19.005,0,0,1-25.071,1.576,1.182,1.182,0,0,0-1.659.207,1.182,1.182,0,0,0,.207,1.659,21.24,21.24,0,0,0,13.076,4.48,21.342,21.342,0,0,0,15.118-6.25A21.312,21.312,0,0,0,195.728-387.543Z" transform="translate(-139.216 406.328)"/><path class="b" d="M342.5-427.211c-.293-.331-.6-.659-.914-.972s-.641-.622-.972-.914a1.182,1.182,0,0,0-1.668.1,1.181,1.181,0,0,0,.1,1.668c.3.261.587.535.866.815s.554.571.815.866a1.179,1.179,0,0,0,.886.4,1.178,1.178,0,0,0,.782-.3A1.182,1.182,0,0,0,342.5-427.211Z" transform="translate(-289.041 441.494)"/><path class="b" d="M118.173-481.47a4.011,4.011,0,0,0,0-4.192l-1.555-2.55a1.664,1.664,0,0,1-.223-1.124l.463-2.945a4.009,4.009,0,0,0-1.609-3.882l-2.41-1.753a1.664,1.664,0,0,1-.638-.953l-.7-2.9a4.01,4.01,0,0,0-2.966-2.966l-2.9-.7a1.663,1.663,0,0,1-.953-.638l-1.753-2.41a4.008,4.008,0,0,0-3.881-1.609l-2.946.463a1.664,1.664,0,0,1-1.123-.223l-2.55-1.555a4.011,4.011,0,0,0-4.192,0l-2.55,1.555a1.663,1.663,0,0,1-1.124.223l-2.945-.463a4.009,4.009,0,0,0-3.881,1.609l-1.753,2.41a1.664,1.664,0,0,1-.953.638l-2.9.7a4.01,4.01,0,0,0-2.966,2.966l-.7,2.9a1.663,1.663,0,0,1-.638.953l-2.41,1.753a4.009,4.009,0,0,0-1.609,3.881l.463,2.946a1.664,1.664,0,0,1-.223,1.123l-1.555,2.55a4.011,4.011,0,0,0,0,4.192l1.555,2.55a1.664,1.664,0,0,1,.223,1.124l-.463,2.945a4.009,4.009,0,0,0,1.609,3.882l2.41,1.753a1.663,1.663,0,0,1,.638.953l.7,2.9a4.01,4.01,0,0,0,2.966,2.966l1.211.293-8.2,18.283a1.182,1.182,0,0,0,.126,1.184,1.181,1.181,0,0,0,1.092.473l6.6-.789,3.8,5.448a1.182,1.182,0,0,0,.969.506c.037,0,.074,0,.111-.005a1.182,1.182,0,0,0,.968-.693l8.371-18.674,1.061.647a4.02,4.02,0,0,0,2.1.591,4.021,4.021,0,0,0,2.1-.591l1.1-.67,8.381,18.7a1.182,1.182,0,0,0,.968.693c.037,0,.074.005.111.005a1.182,1.182,0,0,0,.969-.506l3.8-5.448,6.6.789a1.182,1.182,0,0,0,1.092-.473,1.182,1.182,0,0,0,.126-1.184l-8.2-18.293,1.166-.282a4.01,4.01,0,0,0,2.966-2.966l.7-2.9a1.663,1.663,0,0,1,.638-.953l2.41-1.753a4.009,4.009,0,0,0,1.609-3.881l-.463-2.946a1.664,1.664,0,0,1,.223-1.123ZM77.5-440.569l-3.011-4.318a1.181,1.181,0,0,0-1.11-.5l-5.226.625,7.468-16.659a1.654,1.654,0,0,1,.36.36l1.753,2.41a4.061,4.061,0,0,0,.558.621l-3.931,8.768a1.182,1.182,0,0,0,.6,1.562,1.176,1.176,0,0,0,.483.1,1.182,1.182,0,0,0,1.079-.7l3.917-8.737a4.044,4.044,0,0,0,1.181-.011l2.946-.463a1.657,1.657,0,0,1,.528,0Zm35.057-4.19-5.227-.625a1.181,1.181,0,0,0-1.11.5l-3.011,4.318-7.592-16.936a1.664,1.664,0,0,1,.482,0l2.945.464a4.048,4.048,0,0,0,1.227,0l3.92,8.744a1.182,1.182,0,0,0,1.079.7,1.176,1.176,0,0,0,.483-.1,1.182,1.182,0,0,0,.6-1.562l-3.946-8.8a4.065,4.065,0,0,0,.523-.588l1.753-2.41a1.659,1.659,0,0,1,.4-.387Zm3.6-37.941-1.555,2.55a4.031,4.031,0,0,0-.54,2.721l.463,2.946a1.655,1.655,0,0,1-.664,1.6l-2.411,1.753a4.03,4.03,0,0,0-1.545,2.309l-.7,2.9a1.656,1.656,0,0,1-1.224,1.224l-2.9.7a4.03,4.03,0,0,0-2.309,1.545l-1.753,2.41a1.654,1.654,0,0,1-1.6.664l-2.945-.464a4.031,4.031,0,0,0-2.722.54l-2.55,1.555a1.656,1.656,0,0,1-1.73,0l-2.55-1.555a4.03,4.03,0,0,0-2.1-.588,4.014,4.014,0,0,0-.624.049l-2.946.463a1.655,1.655,0,0,1-1.6-.664l-1.753-2.41a4.03,4.03,0,0,0-2.309-1.545l-2.9-.7a1.656,1.656,0,0,1-1.224-1.224l-.7-2.9a4.03,4.03,0,0,0-1.545-2.309l-2.41-1.753a1.655,1.655,0,0,1-.664-1.6l.463-2.945a4.03,4.03,0,0,0-.54-2.722l-1.555-2.55a1.656,1.656,0,0,1,0-1.73l1.555-2.55a4.031,4.031,0,0,0,.54-2.721l-.463-2.946a1.655,1.655,0,0,1,.664-1.6L69.214-496a4.03,4.03,0,0,0,1.545-2.309l.7-2.9a1.656,1.656,0,0,1,1.224-1.224l2.9-.7a4.029,4.029,0,0,0,2.309-1.545l1.753-2.41a1.654,1.654,0,0,1,1.6-.664l2.945.463a4.029,4.029,0,0,0,2.722-.54l2.55-1.555a1.656,1.656,0,0,1,1.73,0l2.55,1.555a4.029,4.029,0,0,0,2.722.54l2.946-.464a1.656,1.656,0,0,1,1.6.664l1.753,2.41a4.03,4.03,0,0,0,2.309,1.545l2.9.7a1.656,1.656,0,0,1,1.224,1.224l.7,2.9A4.03,4.03,0,0,0,111.449-496l2.41,1.753a1.655,1.655,0,0,1,.664,1.6l-.463,2.945a4.03,4.03,0,0,0,.54,2.722l1.555,2.55A1.655,1.655,0,0,1,116.154-482.7Z" transform="translate(-52.831 511.999)"/><path class="b" d="M188.618-401.552a2.115,2.115,0,0,0-1.78-1.461l-7.112-.843-3-6.5a2.115,2.115,0,0,0-1.939-1.241,2.115,2.115,0,0,0-1.939,1.241l-3,6.5-7.112.843a2.114,2.114,0,0,0-1.78,1.461,2.115,2.115,0,0,0,.581,2.228l5.258,4.863-1.4,7.025a2.114,2.114,0,0,0,.84,2.144,2.126,2.126,0,0,0,1.252.412,2.137,2.137,0,0,0,1.046-.276l6.249-3.5,6.249,3.5a2.114,2.114,0,0,0,2.3-.136,2.114,2.114,0,0,0,.84-2.144l-1.4-7.024,5.258-4.863A2.115,2.115,0,0,0,188.618-401.552Zm-7.93,5.8a1.182,1.182,0,0,0-.357,1.1l1.428,7.188-6.4-3.58a1.181,1.181,0,0,0-.577-.151,1.18,1.18,0,0,0-.577.151l-6.4,3.58,1.428-7.188a1.181,1.181,0,0,0-.357-1.1l-5.381-4.976,7.278-.863a1.182,1.182,0,0,0,.934-.679l3.07-6.655,3.07,6.655a1.182,1.182,0,0,0,.934.679l7.278.863Z" transform="translate(-137.287 426.308)"/></g></g></g></g></svg>