<svg xmlns="http://www.w3.org/2000/svg" xmlns:xlink="http://www.w3.org/1999/xlink" viewBox="-1868 1533 166.454 144.153"><defs><style>.a{fill:#fff;}.b{fill:#42f20c;fill-rule:evenodd;}.c{clip-path:url(#a);}</style><clipPath id="a"><rect class="a" width="75" height="75"/></clipPath></defs><g transform="translate(-1938 -757)"><path class="b" d="M166.454-481.257,124.84-409.181H41.613L0-481.257l41.613-72.077H124.84Z" transform="translate(70 2843.334)"/><g transform="translate(116 2325)"><g class="c"><path class="a" d="M67.919-491.77H7.081A7.089,7.089,0,0,0,0-484.689v40.4a7.089,7.089,0,0,0,7.08,7.082H27.148a41.54,41.54,0,0,1-2.084,11.29h-4.9a1.613,1.613,0,0,0-1.613,1.613,1.613,1.613,0,0,0,1.613,1.613H54.839a1.613,1.613,0,0,0,1.613-1.613,1.613,1.613,0,0,0-1.613-1.613h-4.9a41.544,41.544,0,0,1-2.084-11.29H67.919A7.089,7.089,0,0,0,75-444.294v-40.4A7.088,7.088,0,0,0,67.919-491.77ZM3.226-484.689a3.859,3.859,0,0,1,3.855-3.855H67.919a3.859,3.859,0,0,1,3.855,3.855v36.835H3.226Zm25.228,58.767a44.944,44.944,0,0,0,1.925-11.29H44.622a44.964,44.964,0,0,0,1.925,11.29Zm43.321-18.372h0a3.86,3.86,0,0,1-3.855,3.856H7.081a3.86,3.86,0,0,1-3.855-3.856v-.334H71.774Z" transform="translate(0 494.733)"/><path class="a" d="M191.065-236.01H156.336a1.613,1.613,0,0,0-1.613,1.613,1.613,1.613,0,0,0,1.613,1.613h34.729a1.613,1.613,0,0,0,1.613-1.613A1.613,1.613,0,0,0,191.065-236.01Z" transform="translate(-132.059 276.438)"/><path class="a" d="M100.044-236.01h-.26a1.613,1.613,0,0,0-1.613,1.613,1.613,1.613,0,0,0,1.613,1.613h.26a1.613,1.613,0,0,0,1.613-1.613A1.613,1.613,0,0,0,100.044-236.01Z" transform="translate(-83.79 276.438)"/><path class="a" d="M317.674-417.223l9.508,8.129-9.508,8.129a1.613,1.613,0,0,0-.178,2.274,1.609,1.609,0,0,0,1.227.565,1.607,1.607,0,0,0,1.047-.387l10.942-9.355a1.612,1.612,0,0,0,.565-1.226,1.612,1.612,0,0,0-.565-1.226l-10.942-9.355a1.613,1.613,0,0,0-2.274.178A1.612,1.612,0,0,0,317.674-417.223Z" transform="translate(-270.657 433.529)"/><path class="a" d="M98.736-407.868l10.942,9.355a1.606,1.606,0,0,0,1.047.387,1.609,1.609,0,0,0,1.227-.565,1.613,1.613,0,0,0-.178-2.274l-9.508-8.129,9.508-8.129a1.613,1.613,0,0,0,.178-2.274,1.613,1.613,0,0,0-2.274-.178L98.736-410.32a1.612,1.612,0,0,0-.565,1.226A1.613,1.613,0,0,0,98.736-407.868Z" transform="translate(-83.79 433.53)"/><path class="a" d="M218.023-414.039a1.609,1.609,0,0,0,.5.08,1.614,1.614,0,0,0,1.533-1.114l8.226-25.27a1.613,1.613,0,0,0-1.034-2.033,1.613,1.613,0,0,0-2.033,1.034l-8.226,25.27A1.612,1.612,0,0,0,218.023-414.039Z" transform="translate(-185.136 452.643)"/></g></g></g></svg>